<svg id="svg" version="1.1" xmlns="http://www.w3.org/2000/svg" xmlns:xlink="http://www.w3.org/1999/xlink" width="400" height="266.79245283018867" viewBox="0, 0, 400,266.79245283018867"><g id="svgg"><path id="path0" d="M104.336 38.595 C 103.969 38.648,102.588 38.822,101.268 38.982 C 81.321 41.398,62.826 54.892,54.079 73.410 C 52.152 77.489,50.268 82.600,49.810 84.990 C 49.726 85.430,49.408 86.931,49.104 88.326 C 48.313 91.948,47.940 97.351,48.119 102.602 C 48.312 108.273,48.725 110.951,50.420 117.545 C 54.957 135.191,71.054 152.145,89.126 158.312 C 98.143 161.389,110.829 162.633,118.746 161.216 C 128.086 159.545,134.111 157.334,142.114 152.642 C 144.608 151.179,149.618 147.282,152.129 144.851 C 154.188 142.859,155.185 141.791,157.818 138.758 C 158.562 137.901,162.241 132.690,162.241 132.493 C 162.241 132.441,162.754 131.518,163.381 130.442 C 183.359 96.138,164.019 50.142,125.550 40.469 C 124.670 40.248,123.446 39.935,122.830 39.774 C 118.908 38.746,108.071 38.055,104.336 38.595 M115.547 45.218 C 138.557 47.661,157.109 63.574,163.003 85.924 C 164.838 92.885,165.173 103.738,163.755 110.340 C 153.407 158.542,91.456 170.578,64.177 129.686 C 62.618 127.349,58.973 120.228,58.973 119.519 C 58.973 119.299,58.843 118.990,58.685 118.832 C 58.527 118.674,58.293 118.139,58.165 117.644 C 58.037 117.149,57.686 115.904,57.385 114.877 C 46.533 77.901,77.219 41.150,115.547 45.218 M235.090 66.813 C 235.090 68.210,235.324 68.428,236.575 68.193 C 237.743 67.974,237.738 67.620,236.558 67.058 C 236.044 66.813,235.624 66.462,235.624 66.277 C 235.624 66.093,235.504 65.868,235.357 65.777 C 235.194 65.677,235.090 66.080,235.090 66.813 M108.990 69.673 C 108.754 70.054,107.729 92.011,107.923 92.517 C 108.016 92.760,108.700 92.862,110.236 92.862 L 112.416 92.862 112.249 91.328 C 112.157 90.484,111.895 85.831,111.667 80.987 C 111.134 69.642,111.119 69.537,110.030 69.431 C 109.568 69.386,109.100 69.495,108.990 69.673 M242.228 76.169 C 241.671 76.576,241.608 77.385,242.133 77.385 C 242.337 77.385,242.583 77.071,242.679 76.686 C 242.896 75.822,242.820 75.735,242.228 76.169 M245.058 78.652 C 243.756 79.643,242.437 80.634,242.127 80.854 C 241.817 81.074,239.852 82.575,237.761 84.189 C 235.669 85.804,233.450 87.485,232.829 87.925 C 232.209 88.366,231.173 89.151,230.527 89.670 C 229.881 90.189,228.483 91.251,227.419 92.030 L 225.485 93.445 224.217 93.156 C 223.519 92.996,221.448 92.617,219.613 92.314 C 215.640 91.657,208.368 90.393,205.203 89.810 C 203.956 89.580,202.142 89.275,201.173 89.132 C 200.203 88.989,199.232 88.804,199.014 88.720 C 198.278 88.438,197.774 89.464,196.913 92.995 C 196.220 95.840,196.235 95.941,197.401 96.408 C 197.985 96.641,199.289 97.214,200.299 97.681 C 201.309 98.147,202.741 98.807,203.481 99.146 C 204.222 99.486,205.880 100.253,207.166 100.849 C 208.452 101.446,209.550 101.935,209.606 101.935 C 209.662 101.935,210.729 102.415,211.976 103.002 C 213.223 103.589,214.299 104.069,214.366 104.069 C 214.433 104.069,215.904 104.742,217.634 105.565 C 224.999 109.065,229.867 108.793,236.348 104.520 C 239.849 102.211,239.825 102.219,240.015 103.313 C 240.500 106.116,241.307 112.052,241.527 114.441 C 242.060 120.216,240.099 119.758,257.105 118.076 C 260.587 117.731,266.131 117.211,271.514 116.723 C 274.799 116.426,274.749 116.530,273.269 113.062 C 271.436 108.765,269.017 104.107,265.885 98.843 C 264.209 96.025,264.219 96.063,265.177 96.068 C 266.677 96.076,267.145 96.546,268.958 99.867 C 269.259 100.417,270.394 102.458,271.480 104.403 C 272.567 106.348,273.769 108.509,274.153 109.206 C 276.381 113.258,279.368 118.597,279.624 118.989 C 279.915 119.433,280.526 119.240,283.588 117.737 C 286.560 116.279,286.552 116.297,285.577 113.349 C 284.717 110.744,282.164 103.443,281.400 101.401 C 281.153 100.740,280.851 99.840,280.730 99.400 C 277.555 87.883,274.754 84.470,266.711 82.321 C 265.243 81.929,263.502 81.447,262.842 81.250 C 262.181 81.053,260.921 80.688,260.040 80.438 C 259.159 80.189,257.959 79.832,257.372 79.645 C 256.785 79.459,255.103 78.985,253.636 78.592 C 252.168 78.200,250.254 77.647,249.381 77.365 C 248.509 77.082,247.712 76.851,247.610 76.851 C 247.509 76.851,246.360 77.662,245.058 78.652 M191.861 92.313 C 191.861 93.162,193.020 94.323,193.620 94.076 C 193.938 93.946,194.008 93.822,193.806 93.746 C 193.628 93.679,193.228 93.213,192.917 92.710 C 192.286 91.689,191.861 91.529,191.861 92.313 M91.060 116.679 C 84.126 123.614,78.452 129.415,78.452 129.571 C 78.452 129.934,79.859 131.288,80.236 131.288 C 80.661 131.288,105.670 106.223,105.670 105.796 C 105.670 105.488,104.114 104.069,103.776 104.069 C 103.716 104.069,97.994 109.744,91.060 116.679 M297.665 113.727 C 297.372 113.893,295.492 115.661,293.489 117.655 C 291.485 119.649,288.964 122.127,287.885 123.161 C 283.720 127.153,277.846 133.316,277.673 133.876 C 277.409 134.728,278.024 135.706,280.134 137.785 L 281.989 139.613 286.358 138.777 C 288.761 138.317,291.472 137.764,292.383 137.549 C 293.294 137.334,294.339 137.158,294.705 137.158 C 295.072 137.158,295.648 137.051,295.985 136.920 C 296.322 136.789,297.738 136.480,299.133 136.234 C 300.527 135.988,302.489 135.599,303.492 135.370 C 304.571 135.124,305.839 135.016,306.594 135.106 L 307.872 135.257 310.707 132.352 C 314.730 128.231,315.105 129.259,306.399 120.553 C 299.203 113.356,298.832 113.067,297.665 113.727 M282.230 121.202 C 282.018 122.011,282.220 122.123,282.854 121.549 C 283.524 120.942,283.536 120.614,282.886 120.614 C 282.593 120.614,282.320 120.858,282.230 121.202 M293.729 126.304 C 294.555 127.047,294.507 127.220,293.072 128.677 C 291.739 130.030,291.074 130.229,290.281 129.512 C 289.524 128.826,289.684 128.346,291.173 126.839 C 292.589 125.404,292.703 125.380,293.729 126.304 M148.352 184.277 C 145.727 185.368,145.865 189.652,148.560 190.762 C 149.099 190.984,155.485 191.048,172.087 190.997 L 194.874 190.927 195.750 188.845 C 196.232 187.699,196.875 186.285,197.179 185.701 C 198.230 183.685,200.421 183.854,173.516 183.870 C 152.794 183.881,149.163 183.940,148.352 184.277 M200.147 186.458 C 199.536 187.889,198.878 189.360,198.686 189.726 C 198.182 190.687,198.433 191.061,199.581 191.061 C 200.545 191.061,201.468 190.453,201.468 189.818 C 201.468 189.672,201.948 188.444,202.535 187.091 C 203.899 183.945,203.897 183.856,202.431 183.856 L 201.259 183.856 200.147 186.458 " stroke="none" fill="#5038ee" fill-rule="evenodd"></path><path id="path1" d="M237.892 57.612 C 237.598 57.744,236.944 58.284,236.439 58.813 C 235.661 59.625,235.342 59.773,234.367 59.773 C 232.731 59.773,231.416 61.006,231.185 62.754 C 230.924 64.736,231.298 67.013,231.911 67.174 C 232.192 67.247,232.422 67.485,232.422 67.703 C 232.422 68.202,234.197 70.002,234.503 69.813 C 234.628 69.735,234.647 69.036,234.544 68.258 C 234.371 66.953,234.439 65.497,234.715 64.615 C 234.788 64.383,235.279 64.735,236.093 65.601 C 237.351 66.941,238.943 67.829,240.657 68.145 L 241.553 68.311 241.375 67.357 C 241.039 65.567,242.287 65.057,243.494 66.491 C 243.997 67.089,244.161 67.521,244.052 67.959 C 243.966 68.300,243.825 68.862,243.739 69.209 C 243.546 69.978,245.906 72.149,246.279 71.545 C 246.720 70.831,247.703 64.342,247.574 62.997 C 247.260 59.737,240.958 56.231,237.892 57.612 M244.830 76.842 C 241.898 78.457,240.648 80.033,241.756 80.717 C 242.248 81.022,247.692 76.578,247.342 76.156 C 246.936 75.668,246.988 75.653,244.830 76.842 M107.138 93.412 C 104.283 94.599,102.896 96.851,103.042 100.064 C 103.447 108.959,116.378 108.515,116.378 99.605 C 116.378 94.855,111.512 91.594,107.138 93.412 M268.179 117.161 C 267.225 117.279,263.622 117.630,260.173 117.941 C 256.724 118.252,252.151 118.680,250.009 118.893 C 247.868 119.106,245.681 119.280,245.149 119.280 C 244.109 119.280,243.942 119.461,243.283 121.305 C 243.078 121.879,241.673 125.590,240.160 129.553 C 238.648 133.516,236.999 137.839,236.496 139.159 C 235.993 140.480,234.685 143.865,233.590 146.682 C 230.403 154.873,230.412 154.754,232.199 165.444 C 232.629 168.012,233.096 170.894,233.237 171.848 C 233.378 172.802,233.615 174.183,233.763 174.917 C 233.911 175.650,234.634 179.973,235.370 184.523 C 236.106 189.073,236.772 193.005,236.851 193.262 C 236.972 193.658,237.333 193.729,239.235 193.729 C 242.850 193.729,243.079 194.717,239.760 195.995 C 238.732 196.390,236.300 197.363,234.355 198.157 C 232.409 198.950,230.722 199.600,230.604 199.600 C 229.577 199.600,227.885 202.863,227.885 204.846 L 227.885 205.737 241.094 205.737 L 254.303 205.737 254.303 204.868 C 254.303 204.390,254.177 203.580,254.022 203.067 C 253.868 202.554,253.578 201.354,253.377 200.400 C 252.642 196.905,252.144 194.652,252.006 194.196 C 251.879 193.774,252.111 193.729,254.418 193.729 C 257.398 193.729,257.297 193.891,256.524 190.375 L 256.077 188.339 254.990 188.537 C 252.607 188.971,252.956 189.357,250.045 183.060 C 246.953 176.369,246.894 177.029,250.749 175.167 C 252.117 174.506,253.235 173.939,253.235 173.907 C 253.235 173.875,252.522 170.242,251.650 165.833 C 249.880 156.887,249.890 157.510,251.465 153.199 C 252.468 150.453,253.816 146.640,255.024 143.126 C 256.007 140.268,256.079 140.320,257.663 145.010 C 259.813 151.376,261.532 153.736,265.343 155.554 C 268.977 157.289,268.293 157.310,294.330 154.623 C 296.311 154.418,299.579 154.103,301.593 153.923 C 305.793 153.548,305.478 153.812,305.716 150.464 C 305.920 147.594,306.114 147.521,306.861 150.033 C 310.316 161.652,310.457 161.882,314.533 162.606 C 315.785 162.828,315.496 164.760,317.017 145.964 C 317.308 142.368,317.621 138.736,317.713 137.892 L 317.881 136.358 316.712 136.359 C 316.070 136.360,314.823 136.485,313.943 136.636 C 313.062 136.787,311.111 137.067,309.606 137.257 L 306.871 137.602 306.871 136.313 C 306.871 134.682,310.059 134.271,285.919 139.012 C 279.899 140.194,274.780 141.161,274.543 141.161 C 273.990 141.161,273.910 140.326,273.378 129.019 C 273.150 124.176,272.898 119.463,272.818 118.546 L 272.673 116.878 271.293 116.912 C 270.534 116.931,269.133 117.043,268.179 117.161 M286.992 118.514 C 285.825 119.538,285.964 119.811,287.262 119.046 C 288.549 118.287,288.945 118.328,289.977 119.328 C 291.235 120.548,291.429 120.011,290.189 118.741 C 288.929 117.451,288.257 117.404,286.992 118.514 M282.064 123.531 C 281.912 123.815,281.788 124.235,281.788 124.465 C 281.788 124.918,283.569 127.018,283.954 127.018 C 284.407 127.018,284.183 126.519,283.361 125.697 C 282.645 124.981,282.556 124.741,282.706 123.942 C 282.897 122.923,282.519 122.681,282.064 123.531 M291.025 126.986 C 289.610 128.423,289.536 128.953,290.657 129.631 C 292.036 130.465,294.757 127.195,293.575 126.125 C 292.820 125.442,292.409 125.581,291.025 126.986 M148.281 182.908 C 144.618 184.215,144.021 189.182,147.254 191.450 L 148.412 192.262 183.055 192.262 L 217.699 192.262 218.856 191.450 C 222.090 189.182,221.493 184.215,217.830 182.908 C 216.318 182.369,149.793 182.369,148.281 182.908 M217.511 183.937 C 220.638 185.269,220.665 189.636,217.554 190.962 C 216.017 191.616,149.603 191.493,148.361 190.833 C 145.066 189.082,145.826 184.154,149.445 183.810 C 153.034 183.469,216.690 183.588,217.511 183.937 M36.157 238.025 C 36.267 238.203,91.169 238.292,200.000 238.292 C 308.831 238.292,363.733 238.203,363.843 238.025 C 363.952 237.848,309.270 237.759,200.000 237.759 C 90.730 237.759,36.048 237.848,36.157 238.025 " stroke="none" fill="#363561" fill-rule="evenodd"></path><path id="path2" d="M107.872 38.357 C 108.863 38.408,110.484 38.408,111.474 38.357 C 112.465 38.305,111.654 38.263,109.673 38.263 C 107.692 38.263,106.881 38.305,107.872 38.357 M101.401 38.701 C 100.845 38.823,101.331 38.848,102.602 38.763 C 103.776 38.685,104.787 38.577,104.848 38.523 C 105.044 38.351,102.367 38.489,101.401 38.701 M115.032 38.526 C 115.093 38.581,115.984 38.694,117.011 38.776 C 118.447 38.892,118.632 38.872,117.812 38.691 C 116.733 38.454,114.827 38.341,115.032 38.526 M96.064 39.626 C 95.404 39.818,95.103 39.984,95.397 39.995 C 95.690 40.007,96.531 39.849,97.265 39.645 C 98.038 39.430,98.319 39.275,97.932 39.276 C 97.565 39.277,96.724 39.435,96.064 39.626 M122.081 39.633 C 122.815 39.836,123.656 39.998,123.949 39.991 C 124.243 39.984,123.883 39.812,123.149 39.608 C 122.415 39.404,121.574 39.242,121.281 39.249 C 120.987 39.256,121.348 39.429,122.081 39.633 M92.995 40.437 C 91.943 40.801,91.941 40.804,92.862 40.649 C 93.950 40.465,95.063 40.059,94.463 40.064 C 94.243 40.066,93.582 40.234,92.995 40.437 M125.417 40.409 C 125.931 40.617,126.591 40.788,126.885 40.790 L 127.418 40.793 126.885 40.578 C 126.591 40.460,125.931 40.288,125.417 40.197 L 124.483 40.031 125.417 40.409 M131.003 42.172 C 132.095 42.601,133.032 42.907,133.087 42.853 C 133.207 42.733,129.652 41.354,129.281 41.377 C 129.137 41.385,129.912 41.743,131.003 42.172 M87.125 42.414 C 86.538 42.691,86.177 42.920,86.324 42.921 C 86.688 42.923,88.794 41.937,88.459 41.921 C 88.312 41.914,87.712 42.136,87.125 42.414 M84.857 43.362 C 84.490 43.572,84.310 43.744,84.456 43.744 C 84.603 43.744,85.023 43.572,85.390 43.362 C 85.757 43.152,85.937 42.981,85.791 42.981 C 85.644 42.981,85.223 43.152,84.857 43.362 M133.956 43.362 C 134.323 43.572,134.743 43.744,134.890 43.744 C 135.037 43.744,134.857 43.572,134.490 43.362 C 134.123 43.152,133.702 42.981,133.556 42.981 C 133.409 42.981,133.589 43.152,133.956 43.362 M291.189 44.029 C 291.189 44.543,291.244 44.753,291.311 44.496 C 291.378 44.239,291.378 43.819,291.311 43.562 C 291.244 43.306,291.189 43.516,291.189 44.029 M80.987 45.184 C 78.085 46.718,76.051 47.954,76.051 48.185 C 76.051 48.353,76.403 48.163,77.491 47.408 C 77.916 47.113,79.598 46.175,81.227 45.324 C 82.856 44.472,84.069 43.775,83.923 43.775 C 83.776 43.774,82.455 44.409,80.987 45.184 M135.312 43.864 C 135.584 44.113,138.759 45.624,138.759 45.505 C 138.759 45.355,135.676 43.763,135.387 43.763 C 135.285 43.763,135.251 43.808,135.312 43.864 M108.406 45.027 C 109.249 45.080,110.630 45.080,111.474 45.027 C 112.318 44.974,111.628 44.931,109.940 44.931 C 108.252 44.931,107.562 44.974,108.406 45.027 M104.940 45.288 C 105.346 45.350,105.946 45.348,106.275 45.285 C 106.603 45.221,106.271 45.171,105.537 45.173 C 104.803 45.175,104.535 45.227,104.940 45.288 M114.013 45.288 C 114.419 45.350,115.019 45.348,115.347 45.285 C 115.675 45.221,115.344 45.171,114.610 45.173 C 113.876 45.175,113.607 45.227,114.013 45.288 M100.200 45.770 C 99.466 45.959,99.106 46.119,99.400 46.127 C 99.693 46.135,100.594 45.977,101.401 45.775 C 102.208 45.574,102.568 45.413,102.201 45.418 C 101.835 45.423,100.934 45.581,100.200 45.770 M119.146 45.897 C 119.586 46.009,120.247 46.101,120.614 46.101 C 121.209 46.101,121.194 46.079,120.480 45.897 C 120.040 45.785,119.380 45.694,119.013 45.694 C 118.418 45.694,118.432 45.716,119.146 45.897 M139.173 45.853 C 139.690 46.308,142.026 47.552,141.861 47.285 C 141.767 47.132,141.135 46.698,140.458 46.319 C 139.219 45.627,138.702 45.439,139.173 45.853 M96.064 46.698 C 95.528 46.870,95.502 46.913,95.931 46.919 C 96.224 46.924,96.704 46.824,96.998 46.698 C 97.678 46.406,96.976 46.406,96.064 46.698 M122.748 46.502 C 122.937 46.710,126.039 47.499,126.166 47.372 C 126.265 47.273,125.257 46.969,123.416 46.542 C 122.975 46.439,122.675 46.422,122.748 46.502 M294.953 47.116 C 294.893 47.273,294.878 48.654,294.920 50.185 L 294.997 52.969 297.999 53.044 L 301.001 53.120 301.001 50.731 C 301.001 49.417,301.059 48.183,301.131 47.987 C 301.203 47.792,301.173 47.493,301.065 47.324 C 300.801 46.913,295.104 46.719,294.953 47.116 M92.462 47.765 C 92.125 47.910,92.076 47.995,92.328 47.995 C 92.548 47.995,92.969 47.891,93.262 47.765 C 93.599 47.621,93.648 47.536,93.396 47.536 C 93.175 47.536,92.755 47.639,92.462 47.765 M126.751 47.726 C 126.971 47.854,127.512 48.038,127.952 48.133 C 128.464 48.244,128.608 48.222,128.352 48.072 C 128.132 47.943,127.592 47.759,127.151 47.664 C 126.639 47.553,126.495 47.575,126.751 47.726 M90.327 48.551 C 89.740 48.829,89.380 49.057,89.526 49.058 C 89.890 49.060,91.996 48.075,91.661 48.059 C 91.514 48.052,90.914 48.273,90.327 48.551 M74.645 48.976 C 74.097 49.348,73.649 49.715,73.649 49.791 C 73.649 49.989,75.236 49.032,75.570 48.632 C 75.985 48.137,75.753 48.223,74.645 48.976 M129.153 48.521 C 129.373 48.657,129.853 48.848,130.220 48.946 C 130.684 49.070,130.765 49.049,130.487 48.878 C 130.267 48.742,129.787 48.550,129.420 48.452 C 128.956 48.328,128.875 48.349,129.153 48.521 M143.696 48.487 C 144.260 49.050,148.401 52.042,148.228 51.761 C 148.127 51.598,147.187 50.835,146.137 50.064 C 144.179 48.626,143.203 47.995,143.696 48.487 M108.339 51.501 L 108.339 54.436 109.940 54.436 L 111.541 54.436 111.541 51.501 L 111.541 48.566 109.940 48.566 L 108.339 48.566 108.339 51.501 M131.554 49.500 C 131.921 49.709,132.342 49.881,132.488 49.881 C 132.635 49.881,132.455 49.709,132.088 49.500 C 131.721 49.290,131.301 49.118,131.154 49.118 C 131.007 49.118,131.187 49.290,131.554 49.500 M71.910 50.989 C 69.866 52.662,69.586 53.064,71.436 51.669 C 72.886 50.575,73.608 49.900,73.326 49.900 C 73.278 49.900,72.641 50.390,71.910 50.989 M85.057 50.885 C 84.360 51.273,83.830 51.631,83.879 51.680 C 83.928 51.729,84.619 51.411,85.413 50.973 C 86.208 50.535,86.738 50.177,86.591 50.178 C 86.444 50.179,85.754 50.497,85.057 50.885 M134.512 50.806 C 134.871 51.145,137.509 52.574,137.603 52.479 C 137.721 52.361,134.901 50.700,134.583 50.700 C 134.483 50.700,134.451 50.748,134.512 50.806 M82.655 52.187 C 81.658 52.729,81.718 52.954,82.722 52.435 C 83.162 52.207,83.522 51.964,83.522 51.894 C 83.522 51.723,83.494 51.732,82.655 52.187 M149.300 52.707 C 154.235 57.196,157.856 61.233,160.604 65.310 C 161.564 66.736,162.404 67.663,161.812 66.644 C 159.645 62.916,152.964 55.326,149.693 52.874 C 148.879 52.264,148.754 52.211,149.300 52.707 M138.475 53.051 C 138.832 53.341,139.492 53.782,139.942 54.030 L 140.761 54.481 140.111 53.953 C 139.754 53.663,139.093 53.223,138.643 52.975 L 137.825 52.524 138.475 53.051 M66.942 55.312 C 64.791 57.370,62.940 59.395,60.607 62.241 C 60.396 62.498,60.292 62.708,60.375 62.708 C 60.458 62.708,61.341 61.723,62.337 60.519 C 63.334 59.315,65.416 57.094,66.964 55.584 C 68.513 54.074,69.720 52.842,69.646 52.846 C 69.573 52.849,68.356 53.959,66.942 55.312 M78.185 55.100 C 77.085 55.894,75.644 57.041,74.983 57.649 C 73.890 58.656,73.929 58.639,75.425 57.463 C 76.328 56.752,77.799 55.647,78.693 55.006 C 80.080 54.014,80.555 53.599,80.254 53.646 C 80.217 53.652,79.286 54.306,78.185 55.100 M140.894 54.519 C 140.894 54.585,141.788 55.311,142.880 56.133 C 143.972 56.956,145.654 58.365,146.616 59.265 C 147.578 60.165,148.366 60.819,148.366 60.718 C 148.366 60.617,147.686 59.913,146.856 59.153 C 144.798 57.270,140.894 54.235,140.894 54.519 M272.182 58.097 L 272.182 61.241 275.184 61.241 L 278.185 61.241 278.185 58.172 L 278.185 55.103 275.183 55.028 L 272.181 54.953 272.182 58.097 M236.274 58.506 L 235.490 59.373 236.358 58.589 C 236.835 58.158,237.225 57.768,237.225 57.722 C 237.225 57.516,237.005 57.697,236.274 58.506 M71.247 60.974 C 70.006 62.221,69.109 63.227,69.252 63.208 C 69.514 63.173,73.854 58.706,73.626 58.706 C 73.559 58.706,72.489 59.726,71.247 60.974 M149.967 62.575 C 150.764 63.382,151.474 64.043,151.544 64.043 C 151.657 64.043,151.257 63.594,149.366 61.600 C 149.109 61.329,148.813 61.107,148.708 61.107 C 148.603 61.107,149.169 61.768,149.967 62.575 M142.857 64.456 L 140.810 66.529 141.909 67.554 C 143.310 68.861,143.158 68.898,145.249 66.741 C 147.250 64.678,147.266 64.635,146.424 63.748 C 144.972 62.218,145.089 62.195,142.857 64.456 M73.677 63.614 C 72.614 64.711,72.663 64.840,75.040 67.180 L 76.736 68.850 77.894 67.670 L 79.051 66.491 77.160 64.600 C 74.989 62.429,74.861 62.392,73.677 63.614 M59.506 63.776 C 59.193 64.216,58.996 64.576,59.070 64.576 C 59.143 64.576,59.460 64.216,59.773 63.776 C 60.087 63.336,60.283 62.975,60.210 62.975 C 60.136 62.975,59.820 63.336,59.506 63.776 M67.716 64.910 C 66.250 66.665,64.993 68.324,64.735 68.846 C 64.626 69.066,64.816 68.886,65.156 68.446 C 65.497 68.005,66.531 66.714,67.454 65.577 C 68.377 64.440,69.077 63.509,69.010 63.509 C 68.942 63.509,68.360 64.139,67.716 64.910 M247.694 64.310 C 247.694 64.823,247.749 65.033,247.816 64.777 C 247.883 64.520,247.883 64.099,247.816 63.843 C 247.749 63.586,247.694 63.796,247.694 64.310 M152.254 65.094 C 152.558 65.470,153.440 66.648,154.214 67.712 C 154.988 68.776,155.674 69.646,155.738 69.646 C 155.956 69.646,153.578 66.390,152.635 65.396 C 152.121 64.854,151.950 64.719,152.254 65.094 M294.978 64.928 C 294.904 65.121,294.878 66.532,294.920 68.063 L 294.997 70.847 297.999 70.923 L 301.001 70.998 301.001 67.787 L 301.001 64.576 298.057 64.576 C 295.868 64.576,295.079 64.666,294.978 64.928 M234.774 67.619 C 234.728 69.175,234.780 70.448,234.890 70.448 C 235.000 70.447,235.090 70.632,235.090 70.858 C 235.090 72.878,238.322 76.376,240.427 76.636 C 240.911 76.695,241.116 76.900,241.174 77.385 C 241.302 78.457,241.498 78.879,241.709 78.539 C 241.878 78.267,242.912 77.659,245.879 76.088 C 246.720 75.642,247.011 75.596,247.347 75.854 C 247.670 76.102,247.663 76.054,247.313 75.642 C 246.780 75.012,246.233 72.794,246.463 72.194 C 246.571 71.914,246.503 71.819,246.261 71.907 C 246.061 71.980,245.303 71.519,244.576 70.882 L 243.254 69.725 243.598 68.579 C 243.907 67.545,243.890 67.364,243.425 66.738 C 242.373 65.325,241.150 65.872,241.718 67.502 C 242.430 69.544,238.395 68.364,235.842 65.783 L 234.859 64.790 234.774 67.619 M235.624 66.277 C 235.624 66.462,236.044 66.813,236.558 67.058 C 237.738 67.620,237.743 67.974,236.575 68.193 C 235.324 68.428,235.090 68.210,235.090 66.813 C 235.090 66.080,235.194 65.677,235.357 65.777 C 235.504 65.868,235.624 66.093,235.624 66.277 M162.355 67.979 C 162.916 69.021,163.839 70.350,163.841 70.117 C 163.843 69.867,162.235 67.245,162.078 67.245 C 162.014 67.245,162.138 67.575,162.355 67.979 M232.422 68.488 C 232.422 68.634,232.752 69.044,233.155 69.400 L 233.889 70.047 233.222 69.246 C 232.855 68.806,232.525 68.396,232.488 68.334 C 232.452 68.273,232.422 68.342,232.422 68.488 M247.129 68.624 C 247.112 68.869,247.029 69.289,246.944 69.558 C 246.799 70.021,246.807 70.022,247.096 69.571 C 247.264 69.310,247.347 68.890,247.280 68.637 C 247.172 68.224,247.157 68.223,247.129 68.624 M56.101 68.913 C 55.491 69.671,52.471 75.970,52.945 75.496 C 53.113 75.328,56.509 68.579,56.426 68.579 C 56.395 68.579,56.249 68.729,56.101 68.913 M108.606 70.180 C 108.606 70.620,108.652 70.981,108.709 70.981 C 108.766 70.981,108.865 70.620,108.930 70.180 C 108.994 69.740,108.948 69.380,108.826 69.380 C 108.705 69.380,108.606 69.740,108.606 70.180 M111.054 70.914 C 111.180 71.758,111.392 74.430,111.527 76.851 L 111.771 81.254 111.627 76.184 C 111.443 69.700,111.415 69.380,111.050 69.380 C 110.927 69.380,110.929 70.070,111.054 70.914 M164.741 72.225 C 165.248 73.229,165.847 74.500,166.073 75.050 C 166.534 76.174,166.913 76.441,166.498 75.350 C 165.962 73.939,164.338 70.721,164.082 70.564 C 163.938 70.474,164.234 71.222,164.741 72.225 M157.296 72.448 C 157.707 73.182,158.167 73.903,158.318 74.049 C 158.470 74.196,158.258 73.716,157.847 72.982 C 157.436 72.248,156.977 71.528,156.825 71.381 C 156.674 71.234,156.886 71.714,157.296 72.448 M61.508 74.183 C 61.136 74.917,60.892 75.517,60.965 75.517 C 61.038 75.517,61.403 74.917,61.775 74.183 C 62.146 73.449,62.391 72.849,62.317 72.849 C 62.244 72.849,61.880 73.449,61.508 74.183 M108.432 74.983 C 108.432 76.231,108.478 76.741,108.534 76.117 C 108.590 75.494,108.590 74.473,108.534 73.849 C 108.478 73.225,108.432 73.736,108.432 74.983 M158.519 74.525 C 158.511 74.640,158.826 75.361,159.217 76.126 C 159.608 76.892,160.262 78.359,160.669 79.386 C 161.076 80.414,161.417 81.127,161.425 80.971 C 161.434 80.816,161.160 79.975,160.816 79.103 C 160.130 77.363,158.539 74.193,158.519 74.525 M52.331 76.614 C 52.167 77.086,52.079 77.518,52.136 77.575 C 52.193 77.632,52.374 77.293,52.539 76.822 C 52.703 76.350,52.791 75.917,52.734 75.860 C 52.677 75.803,52.496 76.142,52.331 76.614 M60.221 76.730 C 59.594 78.045,59.683 78.268,60.338 77.026 C 60.636 76.462,60.832 75.953,60.774 75.895 C 60.717 75.838,60.468 76.213,60.221 76.730 M242.679 76.686 C 242.488 77.448,241.761 77.655,241.761 76.947 C 241.761 76.553,242.580 75.713,242.774 75.908 C 242.818 75.952,242.776 76.302,242.679 76.686 M166.798 76.584 C 166.797 76.969,167.550 78.497,167.569 78.149 C 167.574 78.056,167.403 77.576,167.189 77.082 C 166.974 76.588,166.798 76.364,166.798 76.584 M247.632 76.592 C 247.632 76.860,252.113 78.330,252.315 78.127 C 252.385 78.057,251.676 77.792,250.739 77.539 C 249.803 77.285,248.720 76.914,248.334 76.714 C 247.948 76.513,247.632 76.458,247.632 76.592 M51.544 78.597 C 51.374 78.972,51.239 79.422,51.245 79.599 C 51.250 79.775,51.432 79.512,51.649 79.012 C 52.105 77.962,52.008 77.579,51.544 78.597 M59.283 78.864 C 58.836 79.845,58.921 80.055,59.404 79.163 C 59.630 78.746,59.765 78.355,59.704 78.294 C 59.643 78.233,59.453 78.490,59.283 78.864 M108.005 80.962 C 107.895 82.563,107.823 85.084,107.845 86.566 C 107.881 88.960,107.910 88.770,108.114 84.857 C 108.239 82.435,108.311 79.913,108.274 79.253 C 108.236 78.592,108.115 79.362,108.005 80.962 M167.582 78.475 C 167.593 78.867,169.161 83.306,169.169 82.969 C 169.180 82.525,167.943 78.728,167.713 78.498 C 167.639 78.424,167.580 78.413,167.582 78.475 M254.570 78.853 C 255.083 79.050,255.684 79.212,255.904 79.212 C 256.124 79.212,255.884 79.050,255.370 78.853 C 254.857 78.655,254.256 78.493,254.036 78.493 C 253.816 78.493,254.056 78.655,254.570 78.853 M241.289 80.053 C 241.289 80.567,241.344 80.777,241.411 80.520 C 241.479 80.264,241.479 79.843,241.411 79.586 C 241.344 79.330,241.289 79.540,241.289 80.053 M257.372 79.663 C 257.812 79.864,258.412 80.026,258.706 80.021 C 259.052 80.016,258.912 79.886,258.306 79.653 C 257.083 79.182,256.339 79.190,257.372 79.663 M50.747 80.834 C 50.305 82.104,50.376 82.502,50.851 81.408 C 51.069 80.905,51.206 80.368,51.154 80.214 C 51.103 80.060,50.920 80.339,50.747 80.834 M260.137 80.464 C 260.631 80.678,261.292 80.846,261.605 80.836 C 261.925 80.826,261.649 80.653,260.974 80.440 C 259.426 79.952,258.987 79.965,260.137 80.464 M262.308 80.949 C 262.308 81.099,263.011 81.321,266.661 82.324 C 268.102 82.720,269.332 82.992,269.395 82.929 C 269.458 82.865,268.100 82.425,266.376 81.950 C 264.652 81.475,263.032 81.026,262.775 80.952 C 262.518 80.878,262.308 80.877,262.308 80.949 M235.757 85.411 C 226.326 92.599,225.555 93.122,224.591 92.988 L 223.749 92.870 224.603 93.168 C 225.502 93.481,226.582 92.843,230.527 89.670 C 231.173 89.151,232.209 88.366,232.829 87.925 C 234.913 86.447,241.494 81.375,241.494 81.247 C 241.494 81.037,241.545 81.001,235.757 85.411 M161.594 81.921 C 161.692 82.288,161.884 82.769,162.020 82.989 C 162.192 83.267,162.213 83.185,162.089 82.722 C 161.990 82.355,161.799 81.875,161.663 81.654 C 161.491 81.376,161.470 81.458,161.594 81.921 M112.022 86.324 C 112.104 88.672,112.179 91.150,112.189 91.829 C 112.206 92.944,112.299 93.120,113.142 93.643 L 114.076 94.222 113.363 93.609 C 112.596 92.948,112.684 93.592,111.966 83.389 C 111.915 82.655,111.939 83.976,112.022 86.324 M57.669 83.282 C 57.506 83.751,57.380 84.268,57.390 84.429 C 57.401 84.591,57.581 84.253,57.792 83.679 C 58.002 83.105,58.128 82.588,58.071 82.531 C 58.014 82.474,57.833 82.812,57.669 83.282 M270.314 83.389 C 271.187 83.888,271.660 83.882,270.996 83.380 C 270.711 83.165,270.291 82.993,270.062 82.998 C 269.796 83.004,269.886 83.144,270.314 83.389 M169.196 83.683 C 169.187 83.844,169.293 84.325,169.431 84.750 C 169.569 85.176,169.820 86.224,169.988 87.079 C 170.156 87.935,170.345 88.583,170.408 88.520 C 170.552 88.377,169.841 84.958,169.480 84.056 C 169.333 83.689,169.206 83.521,169.196 83.683 M162.282 84.056 C 162.282 84.276,162.444 84.877,162.642 85.390 C 162.840 85.904,163.001 86.144,163.001 85.924 C 163.001 85.704,162.840 85.103,162.642 84.590 C 162.444 84.076,162.282 83.836,162.282 84.056 M272.878 84.703 C 275.884 86.727,276.613 87.878,278.871 94.161 C 279.779 96.687,280.566 98.709,280.620 98.655 C 280.675 98.600,280.291 97.365,279.767 95.909 C 279.244 94.453,278.571 92.542,278.273 91.661 C 277.063 88.091,273.538 83.789,271.822 83.789 C 271.657 83.789,272.132 84.200,272.878 84.703 M49.384 85.675 C 49.207 86.574,49.114 87.361,49.176 87.424 C 49.239 87.487,49.445 86.812,49.633 85.924 C 49.822 85.036,49.915 84.249,49.841 84.175 C 49.766 84.100,49.561 84.776,49.384 85.675 M191.861 86.477 C 188.893 88.068,188.449 89.195,189.717 91.907 C 191.032 94.721,193.146 95.680,195.664 94.605 C 196.051 94.440,196.131 94.547,196.131 95.237 C 196.131 95.976,199.708 98.199,200.897 98.199 C 201.275 98.199,199.848 97.428,198.171 96.726 L 196.341 95.960 196.497 95.011 C 197.313 90.052,198.129 88.437,199.606 88.861 C 200.114 89.007,200.831 89.114,201.199 89.099 C 201.567 89.084,201.155 88.916,200.284 88.726 C 199.413 88.536,198.544 88.440,198.353 88.514 C 198.161 88.587,197.193 88.049,196.200 87.319 C 193.839 85.579,193.616 85.536,191.861 86.477 M56.742 86.514 C 56.652 86.850,56.589 87.365,56.601 87.658 C 56.614 87.952,56.735 87.724,56.869 87.151 C 57.129 86.042,57.018 85.484,56.742 86.514 M48.726 88.886 C 48.628 89.497,48.600 90.050,48.664 90.114 C 48.727 90.177,48.863 89.733,48.966 89.126 C 49.069 88.519,49.096 87.967,49.028 87.898 C 48.960 87.830,48.824 88.274,48.726 88.886 M170.560 89.526 C 170.551 89.967,170.644 90.807,170.765 91.394 C 170.957 92.323,170.988 92.358,171.001 91.661 C 171.010 91.221,170.917 90.380,170.796 89.793 C 170.604 88.865,170.573 88.830,170.560 89.526 M204.403 89.641 C 205.864 89.989,207.818 90.206,207.205 89.953 C 206.911 89.832,205.951 89.662,205.070 89.576 C 203.931 89.464,203.739 89.483,204.403 89.641 M48.361 91.261 C 48.361 91.775,48.416 91.985,48.483 91.728 C 48.550 91.471,48.550 91.051,48.483 90.794 C 48.416 90.537,48.361 90.747,48.361 91.261 M107.509 91.694 C 107.442 92.575,107.504 93.023,107.684 92.954 C 107.838 92.895,107.919 92.400,107.865 91.854 C 107.708 90.270,107.620 90.231,107.509 91.694 M211.207 90.874 C 213.634 91.334,214.614 91.312,212.542 90.845 C 211.661 90.646,210.580 90.492,210.140 90.502 C 209.700 90.512,210.180 90.679,211.207 90.874 M55.832 91.795 C 55.832 92.308,55.887 92.518,55.954 92.262 C 56.022 92.005,56.022 91.584,55.954 91.328 C 55.887 91.071,55.832 91.281,55.832 91.795 M215.744 91.666 C 217.825 92.135,218.526 92.120,216.811 91.642 C 216.077 91.438,215.177 91.279,214.810 91.288 C 214.443 91.298,214.863 91.468,215.744 91.666 M297.587 92.052 C 296.373 92.932,294.643 94.881,294.302 95.753 C 294.059 96.376,294.245 96.817,296.126 100.067 C 296.423 100.580,297.411 102.292,298.322 103.870 L 299.978 106.740 301.490 105.385 C 303.757 103.353,307.607 101.667,311.474 101.013 C 312.530 100.834,312.792 100.418,312.008 100.168 C 310.545 99.700,307.794 98.387,306.690 97.630 C 306.076 97.209,305.450 96.865,305.299 96.865 C 304.680 96.865,299.666 92.399,299.666 91.847 C 299.666 91.238,298.560 91.347,297.587 92.052 M164.177 92.728 C 164.180 93.316,164.234 93.524,164.298 93.192 C 164.362 92.860,164.360 92.380,164.293 92.125 C 164.226 91.870,164.174 92.141,164.177 92.728 M192.917 92.710 C 193.228 93.213,193.628 93.679,193.806 93.746 C 194.008 93.822,193.938 93.946,193.620 94.076 C 193.020 94.323,191.861 93.162,191.861 92.313 C 191.861 91.529,192.286 91.689,192.917 92.710 M219.609 92.315 C 221.052 92.685,223.057 92.902,222.392 92.616 C 222.085 92.485,221.124 92.310,220.257 92.227 C 219.028 92.110,218.885 92.130,219.609 92.315 M171.120 93.662 C 171.120 94.323,171.172 94.593,171.236 94.263 C 171.299 93.933,171.299 93.392,171.236 93.062 C 171.172 92.732,171.120 93.002,171.120 93.662 M48.115 94.330 C 48.116 95.210,48.166 95.538,48.225 95.059 C 48.285 94.579,48.284 93.859,48.223 93.458 C 48.162 93.057,48.113 93.449,48.115 94.330 M164.468 96.464 C 164.469 97.638,164.516 98.086,164.572 97.458 C 164.628 96.830,164.628 95.870,164.570 95.323 C 164.513 94.777,164.467 95.290,164.468 96.464 M55.345 99.400 C 55.345 101.748,55.386 102.673,55.436 101.455 C 55.485 100.237,55.485 98.316,55.435 97.185 C 55.385 96.055,55.345 97.051,55.345 99.400 M171.424 100.067 C 171.424 102.635,171.464 103.686,171.513 102.402 C 171.562 101.117,171.562 99.016,171.513 97.732 C 171.464 96.448,171.424 97.498,171.424 100.067 M47.873 100.200 C 47.874 102.548,47.914 103.473,47.964 102.256 C 48.013 101.038,48.013 99.116,47.963 97.986 C 47.913 96.856,47.873 97.852,47.873 100.200 M264.443 96.232 C 264.443 96.480,267.690 101.935,267.837 101.935 C 267.976 101.935,266.684 99.595,265.491 97.684 L 264.729 96.464 265.453 96.296 C 266.157 96.132,266.153 96.126,265.310 96.096 C 264.833 96.078,264.443 96.140,264.443 96.232 M155.490 98.101 C 155.388 98.204,155.304 98.928,155.304 99.711 L 155.304 101.134 158.252 101.134 L 161.201 101.134 161.121 99.600 L 161.041 98.065 158.359 97.990 C 156.884 97.948,155.593 97.998,155.490 98.101 M58.973 99.800 L 58.973 101.419 61.841 101.343 L 64.710 101.268 64.710 99.800 L 64.710 98.332 61.841 98.256 L 58.973 98.181 58.973 99.800 M202.803 99.086 C 203.758 99.552,205.379 100.315,206.406 100.781 C 207.432 101.247,209.209 102.058,210.355 102.582 C 211.501 103.107,212.518 103.536,212.616 103.536 C 212.978 103.536,211.696 102.813,210.274 102.215 C 208.708 101.557,206.858 100.718,203.548 99.164 C 202.417 98.633,201.397 98.208,201.280 98.219 C 201.163 98.230,201.849 98.620,202.803 99.086 M102.548 99.800 C 102.548 100.607,102.598 100.937,102.659 100.534 C 102.721 100.130,102.721 99.470,102.659 99.066 C 102.598 98.662,102.548 98.993,102.548 99.800 M116.687 99.666 C 116.689 100.400,116.741 100.669,116.803 100.263 C 116.864 99.858,116.862 99.257,116.799 98.929 C 116.736 98.601,116.685 98.933,116.687 99.666 M280.738 99.533 C 280.739 99.753,280.920 100.233,281.141 100.600 L 281.543 101.268 281.366 100.600 C 281.110 99.632,280.736 98.998,280.738 99.533 M268.746 99.939 C 268.969 100.548,271.161 104.336,271.290 104.336 C 271.462 104.336,269.285 100.301,268.914 99.933 C 268.735 99.755,268.679 99.757,268.746 99.939 M164.468 103.135 C 164.469 104.310,164.516 104.757,164.572 104.129 C 164.628 103.501,164.628 102.541,164.570 101.994 C 164.513 101.448,164.467 101.961,164.468 103.135 M281.543 101.570 C 281.531 101.737,281.696 102.277,281.911 102.771 C 282.125 103.265,282.300 103.489,282.299 103.269 C 282.297 102.776,281.573 101.149,281.543 101.570 M267.912 102.324 C 267.912 102.409,268.233 102.987,268.626 103.608 C 269.018 104.229,270.216 106.538,271.286 108.739 C 272.357 110.941,273.237 112.610,273.241 112.449 C 273.252 112.022,268.514 102.542,268.188 102.340 C 268.036 102.247,267.912 102.239,267.912 102.324 M236.424 104.470 C 234.739 105.570,233.483 106.471,233.634 106.471 C 233.784 106.471,234.744 105.894,235.766 105.189 C 236.789 104.484,238.165 103.585,238.826 103.190 C 239.486 102.796,239.906 102.472,239.758 102.471 C 239.610 102.469,238.110 103.369,236.424 104.470 M103.411 103.329 C 103.493 103.542,98.550 108.674,90.999 116.218 C 84.098 123.112,78.380 128.975,78.292 129.246 C 78.109 129.813,79.625 131.554,80.302 131.554 C 80.879 131.554,106.423 105.976,106.007 105.816 C 105.822 105.745,105.670 105.794,105.670 105.924 C 105.670 106.266,80.578 131.288,80.236 131.288 C 79.858 131.288,78.452 129.933,78.452 129.569 C 78.452 129.412,84.156 123.581,91.127 116.611 C 103.234 104.506,104.148 103.514,103.539 103.137 C 103.394 103.048,103.336 103.134,103.411 103.329 M239.942 103.936 C 239.932 104.376,240.023 105.217,240.145 105.804 C 240.435 107.209,240.460 105.947,240.174 104.336 C 240.014 103.436,239.956 103.336,239.942 103.936 M215.050 104.628 C 216.282 105.207,217.335 105.636,217.389 105.581 C 217.507 105.464,213.325 103.526,213.019 103.556 C 212.903 103.567,213.817 104.050,215.050 104.628 M114.593 104.670 L 113.809 105.537 114.676 104.753 C 115.485 104.023,115.666 103.803,115.460 103.803 C 115.414 103.803,115.024 104.193,114.593 104.670 M282.476 104.336 C 282.733 105.305,283.106 105.939,283.105 105.404 C 283.104 105.183,282.922 104.703,282.701 104.336 L 282.299 103.669 282.476 104.336 M48.115 106.071 C 48.116 106.951,48.166 107.279,48.225 106.800 C 48.285 106.320,48.284 105.600,48.223 105.199 C 48.162 104.798,48.113 105.190,48.115 106.071 M271.570 105.070 C 271.665 105.327,272.021 105.985,272.362 106.532 C 272.703 107.080,272.982 107.593,272.982 107.672 C 272.982 107.751,273.262 108.264,273.604 108.811 C 273.946 109.359,274.684 110.647,275.243 111.674 C 277.114 115.109,277.835 116.344,277.969 116.344 C 278.089 116.344,277.724 115.648,275.554 111.741 C 275.167 111.044,274.537 109.903,274.155 109.206 C 271.717 104.762,271.080 103.743,271.570 105.070 M55.554 105.404 C 55.548 105.771,55.639 106.611,55.757 107.272 C 55.917 108.172,55.975 108.272,55.989 107.672 C 55.998 107.231,55.907 106.391,55.786 105.804 C 55.648 105.136,55.561 104.986,55.554 105.404 M171.115 106.604 C 171.118 107.191,171.172 107.400,171.236 107.068 C 171.300 106.736,171.297 106.256,171.231 106.001 C 171.164 105.746,171.112 106.017,171.115 106.604 M218.130 106.079 C 218.415 106.295,218.775 106.467,218.930 106.462 C 219.086 106.458,218.980 106.278,218.695 106.062 C 218.410 105.847,218.050 105.674,217.894 105.679 C 217.739 105.684,217.845 105.864,218.130 106.079 M164.177 106.871 C 164.180 107.458,164.234 107.667,164.298 107.335 C 164.362 107.003,164.360 106.523,164.293 106.268 C 164.226 106.013,164.174 106.284,164.177 106.871 M283.122 106.095 C 283.122 106.343,284.418 110.032,284.942 111.274 C 285.583 112.794,285.190 111.282,284.291 108.770 C 283.339 106.106,283.122 105.611,283.122 106.095 M108.103 106.762 C 108.306 106.891,109.013 106.989,109.673 106.980 C 111.096 106.959,110.844 106.831,109.037 106.655 C 108.234 106.577,107.875 106.618,108.103 106.762 M219.880 106.871 C 220.247 107.081,220.667 107.253,220.814 107.253 C 220.961 107.253,220.781 107.081,220.414 106.871 C 220.047 106.662,219.626 106.490,219.480 106.490 C 219.333 106.490,219.513 106.662,219.880 106.871 M231.888 106.922 C 231.374 107.147,230.233 107.487,229.353 107.680 C 228.472 107.872,228.044 108.039,228.401 108.051 C 229.259 108.079,232.148 107.277,232.815 106.827 C 233.500 106.363,233.065 106.408,231.888 106.922 M240.489 107.805 C 240.489 108.319,240.544 108.529,240.611 108.272 C 240.678 108.015,240.678 107.595,240.611 107.338 C 240.544 107.081,240.489 107.292,240.489 107.805 M222.148 107.656 C 222.735 107.862,223.756 108.023,224.416 108.014 L 225.617 107.997 224.283 107.804 C 223.549 107.698,222.528 107.537,222.015 107.446 C 221.097 107.284,221.100 107.288,222.148 107.656 M170.657 109.283 C 170.554 110.109,170.530 110.845,170.603 110.919 C 170.676 110.992,170.821 110.376,170.924 109.550 C 171.027 108.724,171.052 107.988,170.978 107.914 C 170.905 107.841,170.761 108.457,170.657 109.283 M48.339 108.606 C 48.330 108.973,48.490 110.053,48.693 111.007 L 49.063 112.742 48.922 111.245 C 48.743 109.352,48.361 107.621,48.339 108.606 M240.731 109.673 C 240.723 110.040,240.880 111.361,241.079 112.608 C 241.360 114.364,241.444 114.605,241.451 113.676 C 241.457 113.015,241.300 111.694,241.104 110.740 C 240.907 109.787,240.739 109.306,240.731 109.673 M163.190 111.689 C 163.090 112.225,163.061 112.716,163.126 112.782 C 163.191 112.847,163.327 112.462,163.427 111.926 C 163.528 111.391,163.557 110.899,163.492 110.834 C 163.426 110.769,163.291 111.154,163.190 111.689 M56.616 111.808 C 56.612 112.175,56.712 112.715,56.838 113.009 L 57.067 113.542 57.059 113.009 C 57.055 112.715,56.955 112.175,56.838 111.808 L 56.624 111.141 56.616 111.808 M169.999 113.028 C 169.816 113.847,169.726 114.578,169.799 114.652 C 169.873 114.725,170.074 114.106,170.247 113.276 C 170.419 112.445,170.509 111.714,170.446 111.652 C 170.384 111.589,170.182 112.208,169.999 113.028 M285.267 112.244 C 285.262 112.411,285.432 112.951,285.647 113.445 C 285.861 113.939,286.041 114.207,286.047 114.040 C 286.053 113.873,285.882 113.333,285.668 112.839 C 285.453 112.345,285.273 112.078,285.267 112.244 M273.268 113.009 C 273.268 113.155,273.439 113.576,273.649 113.943 C 273.859 114.310,274.030 114.490,274.030 114.343 C 274.030 114.196,273.859 113.776,273.649 113.409 C 273.439 113.042,273.268 112.862,273.268 113.009 M49.133 113.276 C 49.120 113.422,49.277 114.143,49.481 114.877 C 49.685 115.610,49.854 115.971,49.856 115.677 C 49.859 115.109,49.171 112.824,49.133 113.276 M162.531 114.365 C 162.358 115.049,162.267 115.659,162.329 115.720 C 162.390 115.781,162.581 115.271,162.753 114.588 C 162.925 113.904,163.016 113.294,162.955 113.233 C 162.894 113.172,162.703 113.681,162.531 114.365 M294.680 116.144 C 293.001 117.795,291.573 119.198,291.507 119.261 C 291.440 119.325,290.938 118.964,290.390 118.461 L 289.393 117.545 290.313 118.546 C 291.486 119.823,291.129 119.978,294.349 116.789 C 297.379 113.789,298.083 113.288,298.957 113.510 C 299.274 113.590,302.685 116.818,306.538 120.682 C 315.157 129.328,314.809 128.228,310.340 132.698 C 308.579 134.460,307.138 135.984,307.138 136.086 C 307.138 136.586,313.792 129.472,313.960 128.793 C 314.218 127.744,299.790 113.142,298.494 113.142 C 297.884 113.142,297.131 113.735,294.680 116.144 M286.189 115.179 C 286.386 116.184,285.884 116.657,283.331 117.871 C 279.674 119.611,279.917 119.608,279.002 117.927 C 278.597 117.184,278.204 116.637,278.128 116.713 C 277.611 117.230,279.625 119.409,280.550 119.335 L 281.521 119.256 281.553 120.535 C 281.603 122.597,281.870 123.534,282.228 122.911 C 282.641 122.193,283.198 122.641,283.060 123.581 C 282.950 124.336,283.833 124.876,285.190 124.882 C 285.680 124.884,285.597 125.268,284.987 125.820 C 284.466 126.291,284.430 126.287,283.720 125.661 L 282.989 125.017 283.636 125.751 C 284.277 126.479,284.990 126.726,284.990 126.221 C 284.990 125.903,289.033 121.842,289.945 121.244 C 290.805 120.681,290.764 120.334,289.726 119.396 L 288.859 118.612 289.634 119.470 C 290.282 120.187,290.353 120.395,290.068 120.738 C 289.573 121.334,289.260 121.240,289.260 120.495 C 289.260 120.137,289.020 119.676,288.728 119.471 C 288.435 119.266,288.285 119.002,288.394 118.885 C 288.652 118.609,288.330 118.738,286.790 119.526 C 285.134 120.374,284.883 120.051,286.273 118.861 L 287.382 117.912 286.653 117.243 C 286.163 116.794,286.033 116.530,286.258 116.437 C 286.661 116.271,286.688 115.295,286.304 114.743 C 286.095 114.444,286.066 114.553,286.189 115.179 M57.404 115.010 C 57.399 115.230,57.561 115.771,57.762 116.211 C 58.234 117.241,58.241 116.762,57.772 115.544 C 57.574 115.030,57.408 114.790,57.404 115.010 M274.212 115.418 C 274.339 116.118,274.258 116.267,273.604 116.534 L 272.849 116.842 273.649 116.692 C 274.798 116.477,274.951 116.234,274.481 115.373 L 274.064 114.610 274.212 115.418 M241.651 117.256 C 241.816 119.530,241.833 119.556,243.044 119.504 L 244.029 119.461 243.147 119.352 C 242.141 119.228,242.114 119.183,241.770 117.011 L 241.516 115.410 241.651 117.256 M161.739 116.904 C 161.575 117.374,161.449 117.890,161.460 118.052 C 161.470 118.213,161.651 117.876,161.861 117.301 C 162.071 116.727,162.197 116.211,162.140 116.154 C 162.083 116.097,161.902 116.434,161.739 116.904 M168.813 117.712 C 168.562 118.611,168.406 119.395,168.465 119.454 C 168.523 119.513,168.777 118.826,169.029 117.929 C 169.281 117.031,169.438 116.247,169.377 116.186 C 169.317 116.126,169.063 116.812,168.813 117.712 M50.063 117.011 C 50.282 117.993,50.435 118.206,50.430 117.523 C 50.427 117.241,50.304 116.831,50.155 116.611 C 49.957 116.319,49.932 116.427,50.063 117.011 M58.174 117.694 C 58.173 117.923,58.348 118.343,58.564 118.628 C 59.074 119.302,59.079 119.010,58.574 118.043 C 58.355 117.622,58.175 117.465,58.174 117.694 M273.065 119.413 C 273.066 120.294,273.116 120.622,273.175 120.142 C 273.235 119.662,273.234 118.942,273.173 118.541 C 273.112 118.140,273.063 118.532,273.065 119.413 M50.454 118.479 C 50.453 118.864,51.205 120.391,51.225 120.044 C 51.230 119.951,51.059 119.470,50.844 118.977 C 50.630 118.483,50.454 118.259,50.454 118.479 M160.807 119.541 C 160.205 121.046,160.298 121.270,160.932 119.841 C 161.218 119.196,161.405 118.621,161.347 118.562 C 161.288 118.504,161.046 118.945,160.807 119.541 M58.992 119.680 C 58.992 119.827,59.163 120.247,59.373 120.614 C 59.583 120.981,59.754 121.161,59.754 121.014 C 59.754 120.867,59.583 120.447,59.373 120.080 C 59.163 119.713,58.992 119.533,58.992 119.680 M167.875 120.643 C 167.710 121.115,167.623 121.548,167.680 121.605 C 167.737 121.662,167.918 121.323,168.082 120.851 C 168.247 120.379,168.335 119.947,168.278 119.890 C 168.220 119.833,168.039 120.172,167.875 120.643 M283.389 120.839 C 283.389 121.136,282.353 122.069,282.197 121.912 C 281.897 121.612,282.426 120.614,282.886 120.614 C 283.163 120.614,283.389 120.715,283.389 120.839 M159.331 122.912 C 158.877 123.882,158.511 124.753,158.517 124.847 C 158.532 125.061,159.536 123.167,160.018 122.015 C 160.667 120.463,160.179 121.101,159.331 122.912 M59.798 121.548 C 59.798 121.694,60.147 122.475,60.574 123.282 C 61.000 124.089,61.349 124.630,61.349 124.483 C 61.349 124.336,61.000 123.556,60.574 122.748 C 60.147 121.941,59.798 121.401,59.798 121.548 M166.699 123.581 C 165.728 125.868,165.800 126.254,166.796 124.100 C 167.233 123.156,167.552 122.270,167.506 122.130 C 167.459 121.991,167.096 122.644,166.699 123.581 M52.054 122.882 C 52.054 123.029,52.225 123.449,52.435 123.816 C 52.645 124.183,52.816 124.363,52.816 124.216 C 52.816 124.069,52.645 123.649,52.435 123.282 C 52.225 122.915,52.054 122.735,52.054 122.882 M273.322 125.150 C 273.322 125.811,273.374 126.081,273.437 125.751 C 273.501 125.420,273.501 124.880,273.437 124.550 C 273.374 124.219,273.322 124.490,273.322 125.150 M52.854 124.750 C 52.854 124.897,53.026 125.317,53.235 125.684 C 53.445 126.051,53.617 126.231,53.617 126.084 C 53.617 125.937,53.445 125.517,53.235 125.150 C 53.026 124.783,52.854 124.603,52.854 124.750 M157.425 126.684 C 156.949 127.528,156.383 128.519,156.167 128.886 L 155.774 129.553 156.288 128.933 C 156.877 128.223,158.606 125.150,158.416 125.150 C 158.346 125.150,157.901 125.841,157.425 126.684 M62.300 126.618 C 62.710 127.352,63.170 128.072,63.322 128.219 C 63.473 128.366,63.261 127.885,62.850 127.151 C 62.440 126.418,61.980 125.697,61.829 125.550 C 61.677 125.404,61.889 125.884,62.300 126.618 M282.573 126.278 C 283.461 127.250,283.471 127.286,282.994 127.813 C 282.725 128.109,282.615 128.352,282.750 128.352 C 283.712 128.352,283.677 127.183,282.686 126.247 L 281.665 125.284 282.573 126.278 M273.601 128.886 C 273.601 129.840,273.650 130.230,273.709 129.753 C 273.768 129.276,273.768 128.496,273.709 128.019 C 273.650 127.542,273.601 127.932,273.601 128.886 M55.375 129.962 C 56.205 131.601,57.866 134.223,58.073 134.223 C 58.156 134.223,57.968 133.833,57.654 133.356 C 57.341 132.879,56.598 131.618,56.003 130.554 C 54.766 128.341,54.359 127.958,55.375 129.962 M163.344 130.522 C 162.734 131.575,162.274 132.476,162.321 132.524 C 162.369 132.571,162.918 131.759,163.541 130.719 C 164.164 129.679,164.624 128.778,164.563 128.717 C 164.502 128.656,163.954 129.468,163.344 130.522 M153.824 132.124 C 152.819 133.465,151.408 135.206,150.688 135.993 C 149.425 137.375,149.113 138.011,150.262 136.863 C 151.611 135.514,156.073 129.686,155.757 129.686 C 155.698 129.686,154.828 130.783,153.824 132.124 M64.821 130.687 C 64.965 130.944,65.399 131.514,65.785 131.955 C 66.316 132.561,66.276 132.447,65.620 131.488 C 64.763 130.235,64.311 129.782,64.821 130.687 M142.152 131.496 C 140.868 132.811,140.842 132.719,143.095 134.956 L 145.030 136.877 145.899 136.196 C 147.510 134.935,147.483 134.795,145.206 132.531 L 143.144 130.480 142.152 131.496 M74.715 132.757 L 72.726 134.759 73.845 135.879 L 74.964 136.998 76.656 135.410 C 79.217 133.007,79.215 133.012,78.020 131.789 C 76.755 130.493,77.050 130.406,74.715 132.757 M278.507 132.299 C 276.756 134.092,276.850 134.618,279.394 137.268 C 280.906 138.842,281.444 139.560,281.113 139.560 C 280.848 139.560,280.706 139.635,280.798 139.726 C 280.889 139.818,281.172 139.813,281.426 139.715 C 281.804 139.570,281.546 139.191,279.999 137.614 C 277.149 134.709,276.959 133.875,278.801 132.357 C 279.327 131.924,279.696 131.508,279.621 131.433 C 279.546 131.358,279.045 131.748,278.507 132.299 M273.870 134.089 C 273.871 135.117,273.919 135.504,273.977 134.951 C 274.035 134.397,274.034 133.556,273.975 133.083 C 273.916 132.609,273.869 133.062,273.870 134.089 M67.472 134.156 C 68.108 134.927,68.688 135.557,68.760 135.557 C 68.956 135.557,67.336 133.561,66.790 133.130 C 66.529 132.924,66.836 133.386,67.472 134.156 M160.640 134.890 C 159.009 137.308,159.070 137.568,160.719 135.223 C 162.091 133.273,162.323 132.889,162.132 132.889 C 162.054 132.889,161.383 133.789,160.640 134.890 M58.338 134.823 C 60.810 139.009,68.495 146.963,73.188 150.192 C 75.140 151.535,74.677 150.985,72.515 149.393 C 68.029 146.089,62.989 140.931,59.582 136.157 C 58.537 134.693,57.784 133.885,58.338 134.823 M71.765 138.772 C 74.398 141.401,78.995 145.184,78.979 144.708 C 78.975 144.592,78.405 144.109,77.712 143.635 C 75.983 142.453,74.491 141.188,71.499 138.364 L 68.948 135.957 71.765 138.772 M317.766 137.158 C 317.822 137.745,317.915 138.225,317.973 138.225 C 318.031 138.225,318.079 137.745,318.079 137.158 C 318.079 136.571,317.985 136.091,317.872 136.091 C 317.758 136.091,317.710 136.571,317.766 137.158 M148.432 138.507 C 147.955 138.954,147.565 139.397,147.565 139.492 C 147.565 139.587,147.985 139.257,148.499 138.759 C 149.353 137.931,149.550 137.690,149.366 137.693 C 149.330 137.694,148.909 138.060,148.432 138.507 M157.171 139.483 C 154.376 143.197,146.288 150.256,142.183 152.565 C 141.352 153.033,140.576 153.570,140.459 153.759 C 140.324 153.979,140.483 153.950,140.904 153.677 C 141.265 153.442,141.855 153.082,142.214 152.876 C 143.289 152.259,146.506 149.976,148.499 148.414 C 151.546 146.027,159.098 138.205,158.328 138.234 C 158.206 138.238,157.685 138.800,157.171 139.483 M145.831 140.800 C 145.097 141.469,143.686 142.614,142.695 143.344 C 141.044 144.562,140.346 145.232,141.273 144.710 C 142.530 144.001,147.769 139.522,147.281 139.572 C 147.217 139.578,146.564 140.131,145.831 140.800 M278.719 140.093 C 278.383 140.238,278.333 140.323,278.586 140.323 C 278.806 140.323,279.226 140.220,279.520 140.093 C 279.856 139.949,279.905 139.864,279.653 139.864 C 279.433 139.864,279.013 139.967,278.719 140.093 M317.612 141.294 C 317.615 141.881,317.670 142.090,317.734 141.758 C 317.798 141.426,317.795 140.946,317.728 140.691 C 317.662 140.436,317.609 140.707,317.612 141.294 M274.583 140.906 C 274.291 141.104,274.399 141.129,274.983 140.998 C 275.964 140.778,276.177 140.626,275.495 140.631 C 275.213 140.633,274.803 140.757,274.583 140.906 M317.345 144.763 C 317.348 145.350,317.403 145.559,317.467 145.227 C 317.531 144.895,317.528 144.415,317.462 144.160 C 317.395 143.905,317.343 144.176,317.345 144.763 M108.459 145.236 C 108.382 145.437,108.353 146.794,108.395 148.251 L 108.472 150.901 109.830 150.980 C 111.709 151.089,111.844 150.855,111.751 147.659 L 111.674 145.030 110.137 144.950 C 109.023 144.892,108.561 144.971,108.459 145.236 M139.789 145.445 C 139.193 145.965,139.190 145.979,139.745 145.711 C 140.067 145.555,140.404 145.308,140.495 145.162 C 140.757 144.738,140.469 144.853,139.789 145.445 M80.854 146.016 C 81.298 146.474,84.857 148.488,84.857 148.281 C 84.857 148.209,84.166 147.761,83.322 147.285 C 82.478 146.809,81.488 146.236,81.121 146.011 C 80.518 145.642,80.493 145.643,80.854 146.016 M137.358 146.917 C 136.361 147.458,136.421 147.684,137.425 147.165 C 137.865 146.937,138.225 146.694,138.225 146.624 C 138.225 146.453,138.197 146.462,137.358 146.917 M317.073 147.565 C 317.073 148.079,317.128 148.289,317.195 148.032 C 317.262 147.775,317.262 147.355,317.195 147.098 C 317.128 146.841,317.073 147.051,317.073 147.565 M134.089 148.655 C 133.356 149.076,132.849 149.423,132.964 149.427 C 133.255 149.435,135.824 148.119,135.824 147.961 C 135.824 147.726,135.439 147.881,134.089 148.655 M202.268 149.033 C 202.085 149.253,201.735 149.433,201.488 149.433 C 201.242 149.433,200.927 149.543,200.787 149.677 C 200.648 149.812,200.294 149.962,200.000 150.011 C 199.706 150.060,199.383 150.216,199.282 150.357 C 198.999 150.751,193.802 150.893,193.351 150.518 C 193.129 150.335,192.913 150.310,192.822 150.457 C 192.230 151.416,199.899 154.402,203.662 154.678 C 206.665 154.898,206.706 154.790,204.935 151.324 C 203.531 148.576,203.015 148.132,202.268 149.033 M88.459 150.066 C 89.193 150.411,90.093 150.772,90.460 150.868 C 90.827 150.964,90.507 150.752,89.750 150.396 C 88.992 150.041,88.091 149.680,87.748 149.594 C 87.405 149.509,87.725 149.721,88.459 150.066 M131.021 150.100 C 130.654 150.310,130.474 150.481,130.620 150.481 C 130.767 150.481,131.187 150.310,131.554 150.100 C 131.921 149.890,132.101 149.719,131.955 149.719 C 131.808 149.719,131.388 149.890,131.021 150.100 M316.812 150.634 C 316.815 151.221,316.869 151.430,316.933 151.098 C 316.997 150.766,316.995 150.285,316.928 150.030 C 316.861 149.775,316.809 150.047,316.812 150.634 M305.871 150.901 C 305.874 151.488,305.929 151.696,305.993 151.364 C 306.056 151.033,306.054 150.552,305.987 150.297 C 305.920 150.042,305.868 150.314,305.871 150.901 M128.619 151.034 C 127.959 151.311,127.598 151.536,127.819 151.533 C 128.267 151.528,130.505 150.543,130.087 150.535 C 129.940 150.532,129.280 150.757,128.619 151.034 M75.384 151.694 C 76.517 152.666,80.312 154.867,80.510 154.669 C 80.601 154.578,80.556 154.503,80.410 154.503 C 80.264 154.503,79.554 154.126,78.832 153.665 C 75.372 151.456,74.573 150.999,75.384 151.694 M92.195 151.568 C 92.488 151.694,92.909 151.797,93.129 151.797 C 93.381 151.797,93.332 151.712,92.995 151.568 C 92.702 151.442,92.282 151.338,92.061 151.338 C 91.809 151.338,91.858 151.423,92.195 151.568 M125.684 151.968 C 125.170 152.166,124.930 152.328,125.150 152.328 C 125.370 152.328,125.971 152.166,126.484 151.968 C 126.998 151.770,127.238 151.608,127.018 151.608 C 126.798 151.608,126.197 151.770,125.684 151.968 M96.331 152.782 C 96.991 152.990,97.712 153.154,97.932 153.147 C 98.152 153.139,97.792 152.963,97.131 152.755 C 96.471 152.547,95.751 152.383,95.530 152.390 C 95.310 152.398,95.670 152.574,96.331 152.782 M122.615 152.776 C 122.028 152.969,121.728 153.135,121.948 153.144 C 122.168 153.153,122.889 152.990,123.549 152.782 C 124.209 152.574,124.510 152.409,124.216 152.414 C 123.923 152.420,123.202 152.583,122.615 152.776 M99.318 153.418 C 99.713 153.545,100.674 153.716,101.453 153.798 C 102.598 153.920,102.691 153.904,101.939 153.713 C 100.577 153.368,98.393 153.122,99.318 153.418 M118.879 153.563 C 118.145 153.752,117.785 153.909,118.079 153.912 C 118.372 153.915,119.213 153.764,119.947 153.575 C 120.680 153.387,121.041 153.229,120.747 153.226 C 120.454 153.223,119.613 153.374,118.879 153.563 M316.550 154.770 C 316.550 155.430,316.602 155.700,316.666 155.370 C 316.730 155.040,316.730 154.500,316.666 154.169 C 316.602 153.839,316.550 154.109,316.550 154.770 M104.273 154.158 C 104.605 154.222,105.085 154.219,105.340 154.153 C 105.595 154.086,105.324 154.034,104.736 154.037 C 104.149 154.040,103.941 154.094,104.273 154.158 M110.073 154.236 L 105.804 154.390 109.807 154.427 C 112.008 154.447,114.350 154.367,115.010 154.250 C 116.409 154.001,116.583 154.001,110.073 154.236 M138.431 154.701 C 137.737 155.087,137.214 155.449,137.270 155.505 C 137.393 155.627,140.093 154.282,140.093 154.098 C 140.093 153.855,139.691 154.001,138.431 154.701 M301.738 154.158 C 302.070 154.222,302.550 154.219,302.805 154.153 C 303.060 154.086,302.789 154.034,302.201 154.037 C 301.614 154.040,301.406 154.094,301.738 154.158 M299.336 154.425 C 299.668 154.489,300.148 154.486,300.403 154.420 C 300.659 154.353,300.387 154.300,299.800 154.303 C 299.213 154.306,299.004 154.361,299.336 154.425 M80.854 154.937 C 80.854 155.114,85.972 157.480,86.093 157.359 C 86.145 157.306,84.988 156.710,83.521 156.035 C 82.054 155.360,80.854 154.866,80.854 154.937 M230.641 156.504 C 230.642 157.532,230.691 157.919,230.748 157.366 C 230.806 156.812,230.805 155.971,230.746 155.498 C 230.687 155.024,230.640 155.477,230.641 156.504 M291.598 155.225 C 291.929 155.289,292.410 155.287,292.665 155.220 C 292.920 155.153,292.648 155.101,292.061 155.104 C 291.474 155.107,291.266 155.162,291.598 155.225 M283.589 156.026 C 283.919 156.089,284.460 156.089,284.790 156.026 C 285.120 155.962,284.850 155.910,284.189 155.910 C 283.529 155.910,283.259 155.962,283.589 156.026 M133.556 157.058 C 132.822 157.418,132.462 157.637,132.755 157.545 C 133.049 157.453,133.529 157.313,133.823 157.233 C 134.435 157.067,135.540 156.363,135.149 156.387 C 135.007 156.396,134.290 156.698,133.556 157.058 M275.450 156.822 C 275.707 156.889,276.127 156.889,276.384 156.822 C 276.641 156.755,276.431 156.700,275.917 156.700 C 275.404 156.700,275.193 156.755,275.450 156.822 M316.283 157.705 C 316.283 158.366,316.336 158.636,316.399 158.306 C 316.463 157.975,316.463 157.435,316.399 157.105 C 316.336 156.775,316.283 157.045,316.283 157.705 M273.049 157.089 C 273.306 157.156,273.726 157.156,273.983 157.089 C 274.239 157.021,274.029 156.967,273.516 156.967 C 273.002 156.967,272.792 157.021,273.049 157.089 M87.525 157.943 C 88.058 158.326,91.262 159.394,91.417 159.239 C 91.483 159.173,90.785 158.869,89.865 158.565 C 88.945 158.262,87.952 157.932,87.658 157.834 C 87.227 157.689,87.202 157.710,87.525 157.943 M129.759 158.446 C 128.699 158.828,127.881 159.190,127.941 159.251 C 128.075 159.385,131.260 158.335,131.821 157.972 C 132.465 157.556,131.822 157.704,129.759 158.446 M92.595 159.689 C 93.109 159.896,93.769 160.068,94.063 160.070 L 94.596 160.073 94.063 159.858 C 93.769 159.739,93.109 159.568,92.595 159.477 L 91.661 159.311 92.595 159.689 M125.817 159.714 C 125.230 159.907,124.990 160.066,125.284 160.066 C 125.577 160.066,126.237 159.904,126.751 159.706 C 127.949 159.245,127.222 159.251,125.817 159.714 M316.011 160.240 C 316.014 160.827,316.069 161.036,316.133 160.704 C 316.197 160.372,316.194 159.892,316.127 159.637 C 316.061 159.382,316.008 159.653,316.011 160.240 M95.664 160.514 C 96.251 160.708,97.091 160.863,97.532 160.859 C 98.045 160.855,97.757 160.723,96.731 160.491 C 94.737 160.041,94.259 160.052,95.664 160.514 M122.615 160.501 C 121.831 160.703,121.556 160.848,121.948 160.855 C 122.315 160.861,123.095 160.708,123.682 160.514 C 125.052 160.063,124.353 160.054,122.615 160.501 M118.746 161.174 C 117.809 161.474,118.788 161.484,120.213 161.189 L 121.281 160.969 120.347 160.965 C 119.833 160.962,119.113 161.057,118.746 161.174 M102.001 161.632 C 102.405 161.693,103.065 161.693,103.469 161.632 C 103.873 161.571,103.542 161.521,102.735 161.521 C 101.928 161.521,101.598 161.571,102.001 161.632 M109.807 161.708 L 104.203 161.858 109.540 161.887 C 112.475 161.903,115.597 161.827,116.478 161.718 C 118.416 161.478,118.417 161.478,109.807 161.708 M312.059 162.360 C 312.344 162.588,312.764 162.766,312.993 162.754 C 313.352 162.736,313.354 162.713,313.009 162.585 C 312.789 162.503,312.368 162.326,312.075 162.191 C 311.550 161.949,311.549 161.952,312.059 162.360 M254.214 174.161 C 253.890 174.485,254.030 174.769,254.436 174.613 C 254.656 174.528,254.837 174.352,254.837 174.221 C 254.837 173.941,254.469 173.906,254.214 174.161 M251.101 175.183 C 250.642 175.446,250.569 175.568,250.868 175.574 C 251.107 175.579,251.452 175.404,251.634 175.183 C 252.041 174.694,251.957 174.694,251.101 175.183 M249.619 175.998 C 249.119 176.398,249.122 176.403,249.700 176.123 C 250.054 175.951,250.300 175.936,250.300 176.086 C 250.300 176.225,250.150 176.400,249.967 176.474 C 249.726 176.571,249.722 176.615,249.951 176.630 C 250.391 176.659,250.679 176.123,250.383 175.826 C 250.234 175.678,249.933 175.746,249.619 175.998 M247.922 177.023 C 247.446 177.597,248.363 179.427,248.872 178.918 C 249.296 178.493,249.344 177.999,248.966 177.952 C 248.819 177.934,248.559 177.904,248.388 177.885 C 248.217 177.867,248.020 177.683,247.951 177.476 C 247.866 177.221,247.962 177.152,248.249 177.262 C 248.544 177.375,248.627 177.307,248.524 177.038 C 248.341 176.561,248.306 176.560,247.922 177.023 M315.819 178.772 C 315.733 178.911,315.682 179.662,315.705 180.440 C 315.766 182.433,314.662 184.950,313.007 186.596 C 311.437 188.157,311.566 188.274,315.158 188.537 C 319.171 188.832,322.203 187.850,324.918 185.376 C 326.550 183.888,326.906 183.126,326.208 182.615 C 325.946 182.424,325.395 181.966,324.982 181.599 C 323.021 179.852,316.412 177.813,315.819 178.772 M249.364 179.591 C 249.271 179.740,249.084 179.793,248.948 179.708 C 248.811 179.624,248.699 179.675,248.699 179.822 C 248.699 179.969,248.819 180.163,248.966 180.254 C 249.113 180.344,249.233 180.284,249.233 180.120 C 249.233 179.956,249.353 179.896,249.500 179.987 C 249.646 180.077,249.767 179.964,249.767 179.736 C 249.767 179.257,249.606 179.199,249.364 179.591 M174.183 181.654 C 175.834 181.700,178.536 181.700,180.187 181.654 C 181.838 181.607,180.487 181.568,177.185 181.568 C 173.883 181.568,172.532 181.607,174.183 181.654 M184.590 181.647 C 185.067 181.707,185.847 181.707,186.324 181.647 C 186.801 181.588,186.411 181.540,185.457 181.540 C 184.503 181.540,184.113 181.588,184.590 181.647 M249.816 182.123 C 249.983 182.490,250.156 182.755,250.200 182.711 C 250.362 182.549,249.963 181.454,249.741 181.454 C 249.615 181.454,249.648 181.755,249.816 182.123 M149.900 182.452 C 150.670 182.505,151.931 182.505,152.702 182.452 C 153.472 182.398,152.842 182.354,151.301 182.354 C 149.760 182.354,149.129 182.398,149.900 182.452 M167.378 182.439 C 167.635 182.506,168.055 182.506,168.312 182.439 C 168.569 182.372,168.359 182.317,167.845 182.317 C 167.332 182.317,167.121 182.372,167.378 182.439 M195.416 182.455 C 199.499 182.496,206.103 182.496,210.092 182.455 C 214.081 182.413,210.740 182.379,202.668 182.379 C 194.596 182.379,191.333 182.413,195.416 182.455 M250.577 183.773 C 250.613 184.596,251.249 185.138,251.748 184.772 C 252.031 184.565,252.165 184.304,252.045 184.192 C 251.926 184.081,251.775 184.139,251.709 184.323 C 251.545 184.781,251.101 184.744,251.101 184.272 C 251.101 184.060,250.981 183.813,250.834 183.722 C 250.687 183.632,250.571 183.655,250.577 183.773 M197.732 184.229 C 197.732 184.434,197.384 185.304,196.959 186.163 C 196.534 187.022,195.882 188.476,195.510 189.393 L 194.834 191.061 196.705 191.061 C 198.089 191.061,198.545 190.974,198.457 190.727 C 198.390 190.544,198.495 190.093,198.688 189.726 C 198.970 189.192,199.978 186.894,201.117 184.189 C 201.195 184.006,201.125 183.856,200.963 183.856 C 200.800 183.856,200.667 184.005,200.667 184.188 C 200.667 184.370,200.049 185.931,199.294 187.657 L 197.920 190.794 196.607 190.794 C 195.063 190.794,195.060 190.900,196.706 187.403 C 198.091 184.459,198.310 183.856,197.992 183.856 C 197.849 183.856,197.732 184.024,197.732 184.229 M203.534 184.456 C 203.463 184.787,203.310 185.297,203.194 185.590 C 202.821 186.536,203.304 185.864,203.731 184.843 C 203.958 184.300,204.036 183.856,203.904 183.856 C 203.772 183.856,203.606 184.126,203.534 184.456 M251.683 186.125 C 251.851 186.493,252.024 186.758,252.067 186.714 C 252.230 186.552,251.831 185.457,251.609 185.457 C 251.483 185.457,251.516 185.758,251.683 186.125 M202.142 187.999 C 201.733 188.960,201.454 189.802,201.522 189.870 C 201.590 189.937,201.963 189.190,202.352 188.210 C 203.271 185.894,203.107 185.729,202.142 187.999 M252.168 187.110 C 252.168 187.195,252.347 187.608,252.567 188.028 C 252.821 188.517,252.966 188.629,252.967 188.339 C 252.968 188.089,253.179 187.763,253.436 187.613 C 253.692 187.464,253.760 187.337,253.585 187.333 C 253.410 187.329,253.182 187.463,253.077 187.632 C 252.946 187.845,252.777 187.788,252.528 187.448 C 252.330 187.177,252.168 187.025,252.168 187.110 M254.340 188.165 C 253.847 188.307,253.494 188.473,253.555 188.534 C 253.616 188.595,254.120 188.519,254.676 188.366 C 255.231 188.212,255.855 188.152,256.062 188.231 C 256.268 188.311,256.438 188.259,256.438 188.117 C 256.438 187.800,255.537 187.820,254.340 188.165 M200.934 190.660 C 200.640 191.015,201.558 191.054,208.973 190.998 L 217.345 190.935 209.260 190.861 C 204.037 190.812,201.232 190.693,201.337 190.523 C 201.588 190.116,201.306 190.213,200.934 190.660 M144.897 190.785 C 144.897 190.946,145.077 191.147,145.297 191.231 C 145.525 191.319,145.697 191.717,145.697 192.157 C 145.697 193.003,146.096 193.206,146.291 192.459 C 146.365 192.178,146.109 191.688,145.655 191.241 C 145.238 190.830,144.897 190.625,144.897 190.785 M147.683 192.265 C 147.968 192.483,148.438 192.662,148.728 192.662 C 149.404 192.662,149.257 192.547,148.099 192.171 C 147.250 191.896,147.212 191.905,147.683 192.265 M167.645 192.595 C 170.103 192.639,174.126 192.639,176.584 192.595 C 179.043 192.551,177.031 192.515,172.115 192.515 C 167.198 192.515,165.187 192.551,167.645 192.595 M185.397 192.591 C 186.025 192.647,186.986 192.646,187.532 192.589 C 188.079 192.532,187.565 192.485,186.391 192.486 C 185.217 192.487,184.770 192.534,185.397 192.591 M196.336 192.588 C 196.815 192.648,197.536 192.646,197.937 192.586 C 198.338 192.525,197.945 192.476,197.065 192.478 C 196.184 192.479,195.856 192.529,196.336 192.588 M204.736 192.594 C 206.755 192.640,210.057 192.640,212.075 192.594 C 214.093 192.549,212.442 192.512,208.406 192.512 C 204.370 192.512,202.718 192.549,204.736 192.594 M257.259 193.129 C 257.239 193.705,257.142 193.729,254.852 193.729 C 252.235 193.729,252.071 193.812,252.447 194.953 L 252.702 195.730 252.575 194.863 L 252.448 193.996 254.852 193.996 C 257.299 193.996,257.784 193.783,257.418 192.871 C 257.342 192.682,257.271 192.799,257.259 193.129 M147.416 193.170 C 147.498 193.303,147.806 193.349,148.099 193.273 C 148.833 193.081,148.767 192.929,147.950 192.929 C 147.574 192.929,147.334 193.037,147.416 193.170 M236.509 193.329 C 236.558 193.809,236.809 193.876,239.004 193.996 C 240.347 194.069,241.389 194.039,241.321 193.929 C 241.252 193.819,240.191 193.729,238.963 193.729 C 237.067 193.729,236.710 193.659,236.593 193.262 C 236.485 192.898,236.467 192.913,236.509 193.329 M227.610 204.536 L 227.485 205.871 153.169 205.933 C 72.255 206.001,77.409 205.889,73.866 207.662 C 64.164 212.518,62.106 225.441,69.788 233.275 C 71.312 234.829,73.473 236.284,74.939 236.741 C 75.550 236.932,76.051 237.178,76.051 237.288 C 76.051 237.398,66.955 237.519,55.837 237.557 C 44.720 237.594,109.593 237.625,200.000 237.625 C 290.407 237.625,353.539 237.594,340.294 237.557 C 327.048 237.519,316.211 237.388,316.211 237.266 C 316.211 237.143,316.670 236.905,317.232 236.737 C 318.704 236.295,321.813 234.024,323.205 232.374 C 330.917 223.224,326.713 209.874,315.010 206.352 C 313.492 205.895,311.201 205.874,270.661 205.928 L 227.913 205.986 227.824 204.594 L 227.735 203.202 227.610 204.536 M313.215 210.625 C 313.322 210.685,313.769 210.820,314.208 210.925 C 317.135 211.628,320.264 213.912,320.621 215.607 C 320.729 216.118,320.976 216.659,321.171 216.807 C 322.479 217.810,323.213 222.422,322.348 224.212 C 322.055 224.820,321.811 225.565,321.806 225.867 C 321.802 226.170,321.502 226.898,321.140 227.485 C 320.779 228.072,320.482 228.709,320.482 228.900 C 320.479 229.505,318.542 231.060,316.744 231.900 C 315.791 232.345,314.801 232.825,314.547 232.966 C 314.292 233.107,313.862 233.222,313.590 233.222 C 313.319 233.222,313.036 233.284,312.960 233.360 C 312.780 233.540,79.481 233.539,79.301 233.359 C 79.226 233.284,78.914 233.218,78.608 233.213 C 78.302 233.208,77.572 232.972,76.985 232.688 C 76.398 232.405,75.819 232.169,75.698 232.164 C 75.229 232.144,74.705 231.404,75.052 231.253 C 75.235 231.173,75.045 231.179,74.631 231.265 C 73.474 231.506,70.981 228.729,70.981 227.201 C 70.981 227.026,70.806 226.739,70.593 226.562 C 70.381 226.385,70.127 225.710,70.029 225.062 C 69.932 224.413,69.746 223.883,69.616 223.883 C 69.288 223.883,69.317 220.217,69.646 220.013 C 69.793 219.923,69.913 219.613,69.913 219.325 C 69.913 217.786,73.289 212.408,74.255 212.408 C 74.393 212.408,75.092 212.114,75.808 211.754 C 76.525 211.394,77.534 211.020,78.052 210.923 C 78.569 210.826,79.039 210.670,79.097 210.577 C 79.209 210.395,312.889 210.443,313.215 210.625 M308.406 211.399 C 308.149 211.720,307.948 212.109,307.960 212.262 C 307.971 212.416,308.041 212.392,308.115 212.208 C 308.189 212.025,308.420 211.875,308.628 211.875 C 308.836 211.875,309.006 211.634,309.006 211.341 C 309.006 210.677,308.980 210.680,308.406 211.399 M89.931 217.612 C 89.950 218.923,90.716 220.019,91.701 220.147 L 92.728 220.280 92.810 221.857 C 92.900 223.608,92.711 223.872,91.361 223.879 C 90.669 223.882,90.500 224.008,90.367 224.616 C 90.278 225.020,90.129 225.620,90.035 225.951 L 89.864 226.551 196.128 226.551 C 297.227 226.551,302.383 226.528,302.201 226.084 C 302.096 225.827,301.899 225.234,301.764 224.765 C 301.551 224.029,301.384 223.903,300.525 223.831 L 299.533 223.749 299.454 221.948 L 299.375 220.147 300.392 220.147 C 301.322 220.147,302.335 218.737,302.335 217.443 C 302.335 217.389,254.543 217.345,196.131 217.345 C 125.503 217.345,89.928 217.434,89.931 217.612 M71.247 218.056 C 71.247 218.374,71.281 218.585,71.323 218.523 C 71.365 218.462,71.559 218.202,71.756 217.945 C 72.062 217.546,72.051 217.478,71.680 217.478 C 71.414 217.478,71.247 217.701,71.247 218.056 M79.787 217.791 C 76.988 218.579,75.838 221.924,77.500 224.437 C 79.736 227.815,85.390 226.139,85.390 222.098 C 85.390 219.091,82.650 216.984,79.787 217.791 M309.994 217.746 C 307.185 218.261,305.851 221.938,307.539 224.514 C 308.656 226.218,311.609 226.814,313.296 225.677 C 317.487 222.853,314.980 216.833,309.994 217.746 M117.901 238.492 C 163.153 238.529,237.122 238.529,282.277 238.492 C 327.431 238.455,290.407 238.425,200.000 238.425 C 109.593 238.425,72.648 238.455,117.901 238.492 " stroke="none" fill="#363561" fill-rule="evenodd"></path><path id="path3" d="M238.893 57.289 C 239.149 57.356,239.570 57.356,239.827 57.289 C 240.083 57.222,239.873 57.167,239.360 57.167 C 238.846 57.167,238.636 57.222,238.893 57.289 M236.424 58.572 C 235.665 59.356,235.333 59.506,234.367 59.506 C 233.403 59.506,233.051 59.665,232.218 60.474 L 231.221 61.442 232.231 60.608 C 233.013 59.961,233.497 59.773,234.378 59.773 C 235.353 59.773,235.664 59.621,236.558 58.706 C 237.131 58.119,237.539 57.638,237.465 57.638 C 237.390 57.638,236.922 58.059,236.424 58.572 M243.384 58.257 C 243.809 58.582,245.497 59.464,245.497 59.360 C 245.497 59.182,243.817 58.174,243.518 58.173 C 243.383 58.173,243.323 58.210,243.384 58.257 M230.989 62.241 C 230.785 63.003,230.820 65.318,231.047 66.127 C 231.143 66.466,231.221 65.595,231.221 64.192 C 231.221 61.389,231.220 61.380,230.989 62.241 M234.715 64.615 C 234.443 65.485,234.379 66.944,234.558 68.179 C 234.730 69.363,234.756 69.246,234.788 67.134 L 234.823 64.754 235.824 65.765 C 238.394 68.362,242.433 69.553,241.718 67.502 C 241.150 65.872,242.373 65.325,243.425 66.738 C 243.887 67.360,243.906 67.549,243.605 68.554 C 243.280 69.639,243.294 69.698,244.042 70.394 L 244.815 71.114 244.178 70.383 C 243.579 69.696,243.563 69.588,243.898 68.573 C 244.221 67.593,244.206 67.430,243.728 66.790 C 242.468 65.102,241.309 65.314,241.432 67.209 L 241.503 68.301 240.631 68.140 C 238.944 67.829,237.345 66.935,236.093 65.601 C 235.279 64.735,234.788 64.383,234.715 64.615 M231.358 67.337 C 231.368 68.031,231.867 68.478,232.151 68.045 C 232.530 67.468,232.487 67.324,231.888 67.168 C 231.580 67.087,231.356 67.159,231.358 67.337 M233.426 69.349 C 234.319 70.200,234.823 70.398,234.823 69.898 C 234.823 69.742,234.713 69.683,234.579 69.766 C 234.445 69.849,233.934 69.602,233.445 69.218 L 232.555 68.518 233.426 69.349 M245.403 71.490 C 245.963 72.098,246.568 72.068,246.560 71.432 C 246.558 71.236,246.461 71.264,246.310 71.504 C 246.099 71.837,245.974 71.819,245.447 71.380 L 244.830 70.867 245.403 71.490 M244.096 77.004 C 243.098 77.545,243.159 77.770,244.163 77.252 C 244.603 77.024,244.963 76.781,244.963 76.711 C 244.963 76.539,244.935 76.549,244.096 77.004 M242.078 78.196 C 241.757 78.495,241.494 78.878,241.494 79.047 C 241.494 79.216,241.644 79.154,241.828 78.909 C 242.011 78.664,242.402 78.285,242.695 78.066 C 242.989 77.848,243.101 77.665,242.946 77.660 C 242.790 77.656,242.400 77.897,242.078 78.196 M107.005 93.262 C 106.133 93.760,106.438 93.766,107.574 93.273 C 108.068 93.058,108.292 92.882,108.072 92.882 C 107.852 92.881,107.372 93.052,107.005 93.262 M111.408 93.052 C 111.701 93.123,112.055 93.289,112.195 93.421 C 112.334 93.554,112.574 93.659,112.728 93.654 C 112.883 93.649,112.776 93.469,112.491 93.254 C 112.206 93.038,111.725 92.876,111.423 92.893 C 110.887 92.923,110.887 92.927,111.408 93.052 M104.720 94.797 L 103.936 95.664 104.803 94.880 C 105.612 94.149,105.793 93.929,105.587 93.929 C 105.541 93.929,105.151 94.320,104.720 94.797 M114.472 94.865 C 115.535 96.145,115.624 96.228,115.334 95.661 C 115.183 95.366,114.778 94.886,114.434 94.595 C 113.831 94.085,113.833 94.095,114.472 94.865 M103.389 96.623 C 103.155 97.076,103.010 97.495,103.068 97.553 C 103.126 97.611,103.373 97.240,103.617 96.728 C 104.166 95.577,103.976 95.489,103.389 96.623 M102.821 99.800 C 102.821 100.754,102.869 101.144,102.928 100.667 C 102.987 100.190,102.987 99.410,102.928 98.933 C 102.869 98.456,102.821 98.846,102.821 99.800 M116.406 100.600 C 116.406 101.114,116.461 101.324,116.528 101.067 C 116.595 100.811,116.595 100.390,116.528 100.133 C 116.461 99.877,116.406 100.087,116.406 100.600 M105.900 105.655 C 106.247 105.957,106.657 106.204,106.812 106.204 C 107.140 106.204,107.124 106.191,106.071 105.574 L 105.270 105.105 105.900 105.655 M108.939 106.662 C 109.343 106.723,110.003 106.723,110.407 106.662 C 110.811 106.601,110.480 106.551,109.673 106.551 C 108.866 106.551,108.536 106.601,108.939 106.662 M272.099 116.797 C 272.524 116.880,272.713 117.144,272.790 117.762 C 272.892 118.579,272.898 118.573,272.939 117.612 C 272.979 116.680,272.932 116.614,272.248 116.647 C 271.643 116.677,271.617 116.704,272.099 116.797 M268.382 117.067 C 268.714 117.130,269.194 117.128,269.449 117.061 C 269.705 116.994,269.433 116.942,268.846 116.945 C 268.259 116.948,268.050 117.003,268.382 117.067 M266.247 117.333 C 266.579 117.397,267.060 117.395,267.315 117.328 C 267.570 117.261,267.298 117.209,266.711 117.212 C 266.124 117.215,265.915 117.270,266.247 117.333 M259.573 117.867 C 259.903 117.930,260.444 117.930,260.774 117.867 C 261.104 117.803,260.834 117.751,260.173 117.751 C 259.513 117.751,259.243 117.803,259.573 117.867 M286.391 118.726 C 285.767 119.291,285.257 119.826,285.257 119.916 C 285.257 120.219,285.951 120.084,286.473 119.679 C 286.984 119.284,286.983 119.281,286.458 119.438 C 286.086 119.549,286.226 119.306,286.921 118.638 C 288.252 117.356,287.827 117.427,286.391 118.726 M290.208 118.763 C 290.787 119.432,291.315 119.939,291.381 119.888 C 291.447 119.837,290.974 119.289,290.329 118.670 L 289.156 117.545 290.208 118.763 M257.441 118.134 C 257.773 118.198,258.254 118.195,258.509 118.129 C 258.764 118.062,258.492 118.010,257.905 118.013 C 257.318 118.016,257.109 118.070,257.441 118.134 M251.304 118.668 C 251.636 118.732,252.116 118.729,252.371 118.662 C 252.626 118.596,252.355 118.543,251.768 118.546 C 251.181 118.549,250.972 118.604,251.304 118.668 M287.541 118.888 C 287.256 119.103,287.159 119.280,287.325 119.280 C 287.491 119.280,287.701 119.159,287.792 119.013 C 288.114 118.492,289.114 118.758,290.047 119.613 L 290.994 120.480 290.074 119.480 C 289.098 118.417,288.384 118.250,287.541 118.888 M273.070 122.615 C 273.071 123.642,273.119 124.030,273.177 123.476 C 273.234 122.923,273.234 122.082,273.175 121.608 C 273.116 121.135,273.068 121.588,273.070 122.615 M282.119 123.011 C 281.937 123.303,281.792 123.633,281.796 123.746 C 281.800 123.858,281.926 123.739,282.076 123.482 C 282.531 122.700,282.893 122.943,282.712 123.909 C 282.578 124.622,282.670 124.934,283.167 125.456 C 283.509 125.816,283.609 125.881,283.389 125.602 C 283.166 125.319,282.989 124.555,282.989 123.878 C 282.989 122.542,282.633 122.188,282.119 123.011 M281.788 125.051 C 281.788 125.193,282.298 125.783,282.922 126.363 L 284.056 127.418 282.989 126.222 C 282.402 125.563,281.891 124.973,281.855 124.910 C 281.818 124.846,281.788 124.910,281.788 125.051 M273.334 127.819 C 273.334 128.773,273.383 129.163,273.442 128.686 C 273.501 128.209,273.501 127.428,273.442 126.951 C 273.383 126.474,273.334 126.865,273.334 127.819 M294.084 127.009 C 294.072 127.224,293.494 128.004,292.799 128.743 L 291.535 130.087 292.965 128.717 C 293.804 127.913,294.335 127.196,294.250 126.982 C 294.134 126.690,294.101 126.696,294.084 127.009 M273.607 132.488 C 273.608 133.662,273.655 134.110,273.711 133.482 C 273.768 132.854,273.767 131.894,273.710 131.347 C 273.652 130.801,273.606 131.314,273.607 132.488 M239.122 131.584 C 238.958 132.056,238.870 132.488,238.927 132.545 C 238.984 132.602,239.166 132.263,239.330 131.792 C 239.494 131.320,239.582 130.887,239.525 130.830 C 239.468 130.773,239.287 131.112,239.122 131.584 M238.322 133.719 C 238.157 134.190,238.070 134.623,238.127 134.680 C 238.184 134.737,238.365 134.398,238.529 133.926 C 238.694 133.455,238.782 133.022,238.725 132.965 C 238.667 132.908,238.486 133.247,238.322 133.719 M237.521 135.854 C 237.357 136.325,237.269 136.758,237.326 136.815 C 237.383 136.872,237.564 136.533,237.729 136.061 C 237.893 135.589,237.981 135.157,237.924 135.100 C 237.867 135.043,237.686 135.382,237.521 135.854 M303.936 135.290 C 303.408 135.459,303.380 135.504,303.803 135.504 C 304.096 135.504,304.636 135.408,305.003 135.290 C 305.532 135.121,305.559 135.077,305.137 135.077 C 304.843 135.077,304.303 135.173,303.936 135.290 M306.871 135.808 C 306.871 136.257,306.917 136.624,306.974 136.624 C 307.200 136.624,307.317 135.268,307.102 135.135 C 306.975 135.056,306.871 135.359,306.871 135.808 M273.870 137.558 C 273.871 138.586,273.919 138.973,273.977 138.420 C 274.035 137.866,274.034 137.025,273.975 136.552 C 273.916 136.078,273.869 136.531,273.870 137.558 M315.747 136.282 C 316.153 136.344,316.754 136.342,317.082 136.279 C 317.410 136.215,317.078 136.165,316.344 136.167 C 315.610 136.169,315.342 136.221,315.747 136.282 M309.940 136.928 C 307.419 137.247,307.096 137.454,309.409 137.267 C 311.405 137.107,313.686 136.674,312.475 136.685 C 312.108 136.689,310.967 136.798,309.940 136.928 M236.410 138.663 C 236.263 139.050,236.192 139.416,236.253 139.477 C 236.313 139.537,236.490 139.221,236.646 138.773 C 236.993 137.777,236.784 137.680,236.410 138.663 M317.618 139.293 C 317.618 139.953,317.670 140.223,317.733 139.893 C 317.797 139.563,317.797 139.023,317.733 138.692 C 317.670 138.362,317.618 138.632,317.618 139.293 M255.819 140.801 C 255.719 140.901,255.639 141.113,255.641 141.272 C 255.644 141.437,255.739 141.414,255.863 141.218 C 256.010 140.986,256.188 141.233,256.411 141.978 C 256.593 142.584,256.794 143.028,256.858 142.965 C 256.991 142.831,256.455 141.129,256.183 140.823 C 256.083 140.710,255.920 140.700,255.819 140.801 M317.358 142.495 C 317.358 143.302,317.408 143.632,317.469 143.229 C 317.530 142.825,317.530 142.165,317.469 141.761 C 317.408 141.358,317.358 141.688,317.358 142.495 M257.391 144.897 C 257.489 145.264,257.681 145.744,257.817 145.964 C 257.989 146.242,258.010 146.161,257.886 145.697 C 257.788 145.330,257.596 144.850,257.460 144.630 C 257.288 144.352,257.267 144.433,257.391 144.897 M317.088 145.564 C 317.090 146.298,317.141 146.566,317.203 146.160 C 317.264 145.755,317.263 145.154,317.199 144.826 C 317.136 144.498,317.086 144.830,317.088 145.564 M258.071 146.765 C 258.066 146.985,258.228 147.525,258.429 147.965 C 258.901 148.996,258.908 148.517,258.439 147.298 C 258.241 146.785,258.076 146.544,258.071 146.765 M316.812 148.766 C 316.815 149.353,316.869 149.562,316.933 149.230 C 316.997 148.898,316.995 148.417,316.928 148.162 C 316.861 147.907,316.809 148.179,316.812 148.766 M305.835 149.099 C 305.867 150.095,305.868 150.096,306.071 149.300 C 306.196 148.809,306.287 148.697,306.306 149.010 C 306.323 149.292,306.409 149.451,306.495 149.364 C 306.718 149.142,306.353 148.099,306.053 148.099 C 305.916 148.099,305.818 148.549,305.835 149.099 M305.580 152.013 C 305.556 152.478,305.468 153.078,305.383 153.347 C 305.239 153.808,305.247 153.809,305.533 153.363 C 305.700 153.103,305.789 152.503,305.730 152.029 L 305.622 151.167 305.580 152.013 M316.554 152.502 C 316.556 153.235,316.608 153.504,316.669 153.098 C 316.730 152.693,316.729 152.092,316.665 151.764 C 316.602 151.436,316.552 151.768,316.554 152.502 M261.374 152.867 C 261.815 153.354,262.535 154.000,262.975 154.304 C 263.921 154.957,263.708 154.726,261.908 153.151 C 260.922 152.289,260.783 152.214,261.374 152.867 M302.402 153.886 C 302.658 153.954,303.079 153.954,303.336 153.886 C 303.592 153.819,303.382 153.764,302.869 153.764 C 302.355 153.764,302.145 153.819,302.402 153.886 M250.731 155.201 C 250.495 155.894,250.348 156.508,250.404 156.564 C 250.461 156.620,250.700 156.099,250.937 155.406 C 251.173 154.713,251.320 154.099,251.263 154.043 C 251.207 153.987,250.967 154.508,250.731 155.201 M299.600 154.158 C 299.930 154.221,300.470 154.221,300.801 154.158 C 301.131 154.094,300.861 154.042,300.200 154.042 C 299.540 154.042,299.270 154.094,299.600 154.158 M316.291 155.304 C 316.291 156.111,316.341 156.441,316.402 156.037 C 316.463 155.634,316.463 154.973,316.402 154.570 C 316.341 154.166,316.291 154.496,316.291 155.304 M297.598 154.420 C 297.855 154.487,298.276 154.487,298.532 154.420 C 298.789 154.353,298.579 154.298,298.065 154.298 C 297.552 154.298,297.342 154.353,297.598 154.420 M294.800 154.692 C 295.132 154.756,295.612 154.753,295.867 154.686 C 296.122 154.620,295.851 154.567,295.264 154.570 C 294.676 154.573,294.468 154.628,294.800 154.692 M291.861 154.958 C 292.191 155.022,292.732 155.022,293.062 154.958 C 293.392 154.895,293.122 154.843,292.462 154.843 C 291.801 154.843,291.531 154.895,291.861 154.958 M308.223 155.064 C 308.203 155.555,308.755 157.244,308.892 157.108 C 308.942 157.058,308.816 156.481,308.612 155.827 C 308.408 155.172,308.233 154.829,308.223 155.064 M289.730 155.225 C 290.062 155.289,290.542 155.287,290.797 155.220 C 291.052 155.153,290.781 155.101,290.193 155.104 C 289.606 155.107,289.398 155.162,289.730 155.225 M287.061 155.492 C 287.393 155.556,287.873 155.554,288.129 155.487 C 288.384 155.420,288.112 155.368,287.525 155.371 C 286.938 155.374,286.729 155.428,287.061 155.492 M284.126 155.759 C 284.458 155.823,284.938 155.821,285.193 155.754 C 285.448 155.687,285.177 155.635,284.590 155.638 C 284.003 155.641,283.794 155.695,284.126 155.759 M281.454 156.026 C 281.785 156.089,282.325 156.089,282.655 156.026 C 282.985 155.962,282.715 155.910,282.055 155.910 C 281.394 155.910,281.124 155.962,281.454 156.026 M279.053 156.292 C 279.383 156.356,279.923 156.356,280.254 156.292 C 280.584 156.229,280.314 156.177,279.653 156.177 C 278.993 156.177,278.722 156.229,279.053 156.292 M276.387 156.560 C 276.719 156.623,277.200 156.621,277.455 156.554 C 277.710 156.487,277.438 156.435,276.851 156.438 C 276.264 156.441,276.055 156.496,276.387 156.560 M268.846 156.906 C 269.655 157.111,272.898 157.253,272.693 157.075 C 272.632 157.022,271.561 156.917,270.314 156.842 C 269.065 156.766,268.405 156.795,268.846 156.906 M273.449 156.826 C 273.779 156.890,274.320 156.890,274.650 156.826 C 274.980 156.762,274.710 156.710,274.049 156.710 C 273.389 156.710,273.119 156.762,273.449 156.826 M309.133 158.105 C 309.327 159.011,310.349 161.254,310.500 161.103 C 310.555 161.049,310.361 160.537,310.069 159.965 C 309.778 159.394,309.538 158.742,309.536 158.516 C 309.533 158.290,309.404 157.925,309.247 157.705 C 309.031 157.401,309.004 157.497,309.133 158.105 M316.011 158.372 C 316.014 158.959,316.069 159.168,316.133 158.836 C 316.197 158.504,316.194 158.024,316.127 157.769 C 316.061 157.514,316.008 157.785,316.011 158.372 M230.883 158.372 C 230.883 158.813,230.975 159.533,231.087 159.973 C 231.370 161.083,231.382 159.991,231.103 158.639 C 230.917 157.742,230.882 157.699,230.883 158.372 M315.626 161.841 C 315.567 162.355,315.613 162.775,315.731 162.775 C 315.848 162.775,315.944 162.355,315.944 161.841 C 315.944 161.328,315.897 160.907,315.840 160.907 C 315.782 160.907,315.686 161.328,315.626 161.841 M312.875 162.501 C 313.385 162.727,315.086 162.880,314.854 162.679 C 314.793 162.626,314.203 162.511,313.542 162.424 C 312.741 162.318,312.519 162.344,312.875 162.501 M251.426 164.510 C 251.428 164.803,251.522 165.404,251.634 165.844 C 251.817 166.563,251.839 166.577,251.843 165.977 C 251.846 165.610,251.752 165.010,251.634 164.643 C 251.467 164.120,251.422 164.091,251.426 164.510 M232.747 169.847 C 232.749 170.140,232.843 170.740,232.955 171.181 C 233.138 171.900,233.160 171.913,233.164 171.314 C 233.167 170.947,233.073 170.347,232.955 169.980 C 232.788 169.457,232.743 169.428,232.747 169.847 M233.547 174.650 C 233.550 174.943,233.644 175.544,233.756 175.984 C 233.939 176.703,233.960 176.717,233.965 176.117 C 233.967 175.751,233.873 175.150,233.756 174.783 C 233.588 174.260,233.543 174.232,233.547 174.650 M248.472 176.386 C 246.960 177.481,247.071 177.628,248.632 176.596 C 250.220 175.546,250.175 175.584,249.851 175.584 C 249.702 175.584,249.081 175.945,248.472 176.386 M247.654 177.852 C 247.654 177.999,247.884 178.539,248.165 179.053 C 248.447 179.566,248.677 179.867,248.677 179.720 C 248.677 179.573,248.447 179.033,248.165 178.519 C 247.884 178.005,247.654 177.705,247.654 177.852 M249.522 181.855 C 249.522 182.001,249.752 182.542,250.033 183.055 C 250.315 183.569,250.545 183.869,250.545 183.722 C 250.545 183.576,250.315 183.035,250.033 182.522 C 249.752 182.008,249.522 181.708,249.522 181.855 M157.254 182.454 C 159.133 182.500,162.135 182.500,163.925 182.454 C 165.714 182.408,164.176 182.370,160.507 182.371 C 156.838 182.371,155.374 182.408,157.254 182.454 M173.533 182.455 C 176.295 182.498,180.738 182.498,183.406 182.455 C 186.075 182.411,183.816 182.376,178.386 182.376 C 172.955 182.376,170.772 182.411,173.533 182.455 M146.311 183.923 C 145.721 184.570,145.157 185.555,145.174 185.906 C 145.180 186.026,145.375 185.764,145.607 185.324 C 145.839 184.883,146.275 184.253,146.577 183.923 C 146.878 183.592,147.064 183.322,146.991 183.322 C 146.918 183.322,146.611 183.592,146.311 183.923 M219.514 183.858 C 219.826 184.224,220.272 184.883,220.504 185.324 C 220.736 185.764,220.931 186.028,220.937 185.911 C 220.958 185.482,220.185 184.241,219.574 183.724 L 218.946 183.193 219.514 183.858 M151.912 183.787 C 152.909 183.839,154.470 183.838,155.381 183.786 C 156.293 183.734,155.477 183.692,153.569 183.693 C 151.661 183.693,150.916 183.736,151.912 183.787 M178.565 183.789 C 185.562 183.829,197.090 183.829,204.183 183.789 C 211.275 183.750,205.550 183.717,191.461 183.717 C 177.372 183.717,171.569 183.750,178.565 183.789 M217.914 184.368 C 218.374 184.648,218.944 185.155,219.182 185.493 C 219.419 185.832,219.613 185.975,219.613 185.811 C 219.613 185.430,217.832 183.856,217.402 183.857 C 217.224 183.857,217.454 184.087,217.914 184.368 M250.858 184.790 C 250.858 184.937,251.147 185.597,251.501 186.258 C 251.855 186.918,252.144 187.338,252.144 187.191 C 252.144 187.045,251.855 186.384,251.501 185.724 C 251.147 185.063,250.858 184.643,250.858 184.790 M144.973 187.458 C 144.975 188.192,145.027 188.461,145.088 188.055 C 145.149 187.649,145.148 187.049,145.084 186.721 C 145.021 186.393,144.971 186.724,144.973 187.458 M146.307 187.458 C 146.309 188.192,146.361 188.461,146.422 188.055 C 146.484 187.649,146.482 187.049,146.419 186.721 C 146.355 186.393,146.305 186.724,146.307 187.458 M221.024 187.458 C 221.026 188.192,221.077 188.461,221.139 188.055 C 221.200 187.649,221.198 187.049,221.135 186.721 C 221.072 186.393,221.022 186.724,221.024 187.458 M252.401 188.179 C 252.533 188.538,252.865 188.807,253.202 188.828 C 253.720 188.860,253.723 188.851,253.240 188.743 C 252.944 188.676,252.702 188.457,252.702 188.256 C 252.702 188.055,252.583 187.817,252.439 187.727 C 252.271 187.624,252.257 187.787,252.401 188.179 M255.535 188.309 C 255.940 188.389,256.183 188.739,256.391 189.540 L 256.682 190.660 256.535 189.595 C 256.349 188.240,256.265 188.118,255.555 188.162 C 254.978 188.198,254.978 188.200,255.535 188.309 M219.128 189.480 C 218.946 189.772,218.411 190.246,217.938 190.535 C 217.465 190.823,217.230 191.059,217.416 191.060 C 217.831 191.061,219.800 189.290,219.602 189.093 C 219.524 189.014,219.310 189.189,219.128 189.480 M146.680 191.261 C 147.163 191.738,147.706 192.128,147.887 192.128 C 148.069 192.128,147.921 191.929,147.558 191.686 C 147.195 191.443,146.652 191.053,146.351 190.819 C 146.050 190.585,146.198 190.784,146.680 191.261 M219.213 191.227 C 218.733 191.636,218.635 191.798,218.968 191.633 C 219.457 191.390,220.375 190.511,220.113 190.537 C 220.058 190.542,219.653 190.853,219.213 191.227 M166.044 191.261 C 175.400 191.300,190.710 191.300,200.067 191.261 C 209.423 191.222,201.768 191.190,183.055 191.190 C 164.343 191.190,156.688 191.222,166.044 191.261 M148.841 192.443 C 149.093 192.543,152.482 192.611,156.371 192.595 C 160.260 192.579,162.902 192.530,162.241 192.485 C 159.597 192.309,148.412 192.273,148.841 192.443 M181.648 192.588 C 182.122 192.646,182.963 192.647,183.516 192.590 C 184.070 192.532,183.682 192.484,182.655 192.482 C 181.628 192.481,181.175 192.529,181.648 192.588 M189.126 192.588 C 189.603 192.647,190.384 192.647,190.861 192.588 C 191.338 192.529,190.947 192.480,189.993 192.480 C 189.039 192.480,188.649 192.529,189.126 192.588 M199.133 192.586 C 199.536 192.647,200.197 192.647,200.600 192.586 C 201.004 192.525,200.674 192.475,199.867 192.475 C 199.059 192.475,198.729 192.525,199.133 192.586 M241.480 194.179 C 241.871 194.989,241.873 194.985,240.809 195.336 C 240.286 195.509,239.913 195.705,239.980 195.773 C 240.163 195.956,242.028 195.126,242.028 194.861 C 242.028 194.735,241.841 194.399,241.613 194.114 C 241.212 193.613,241.208 193.616,241.480 194.179 M252.478 196.131 C 252.477 196.498,252.640 197.278,252.840 197.865 L 253.204 198.933 253.045 197.865 C 252.957 197.278,252.794 196.498,252.683 196.131 L 252.481 195.464 252.478 196.131 M238.426 196.274 C 237.985 196.475,237.805 196.642,238.025 196.643 C 238.245 196.644,238.726 196.474,239.093 196.264 C 239.936 195.782,239.486 195.788,238.426 196.274 M231.488 199.071 C 230.892 199.363,230.715 199.522,231.087 199.431 C 231.867 199.239,233.213 198.555,232.822 198.550 C 232.675 198.548,232.075 198.782,231.488 199.071 M253.393 200.235 C 253.477 200.952,253.648 201.792,253.774 202.103 C 254.138 203.004,254.053 202.017,253.627 200.400 L 253.241 198.933 253.393 200.235 M229.387 200.305 C 228.583 201.050,227.873 202.465,227.903 203.260 C 227.913 203.522,228.085 203.209,228.286 202.566 C 228.486 201.922,229.042 200.992,229.521 200.498 C 230.556 199.430,230.467 199.303,229.387 200.305 M254.343 204.734 L 254.303 205.732 241.027 205.804 L 227.752 205.876 241.036 205.940 C 255.517 206.010,254.736 206.094,254.496 204.492 C 254.401 203.855,254.377 203.892,254.343 204.734 M136.424 237.692 C 169.263 237.729,222.999 237.729,255.837 237.692 C 288.676 237.654,261.808 237.624,196.131 237.624 C 130.454 237.624,103.586 237.654,136.424 237.692 " stroke="none" fill="#aaaab9" fill-rule="evenodd"></path></g></svg>